<svg width="1400" height="665" viewBox="0 0 1400 665" fill="none" xmlns="http://www.w3.org/2000/svg">
<path d="M189.599 589.965C-13.2009 612.765 -26.5675 525.798 -7.90088 479.465C28.5991 424.465 39.0991 524.965 240.099 479.465C441.099 433.965 625.099 563.965 723.599 479.465C822.099 394.965 1300.1 364.465 1381.1 435.965C1462.1 507.465 1404.6 487.465 1245.1 623.965C1085.6 760.465 769.599 495.965 619.099 596.965C468.599 697.965 443.099 561.465 189.599 589.965Z" fill="#F8FBFF"/>
<path d="M1125.6 289.488C1176.87 236.333 1176.87 150.153 1125.6 96.9986C1074.33 43.8442 991.202 43.8443 939.931 96.9987C888.66 150.153 888.66 236.333 939.931 289.488C991.202 342.642 1074.33 342.642 1125.6 289.488Z" fill="#FBB667"/>
<path opacity="0.8" d="M877.433 204.926C873.522 197.573 865.988 192.603 857.326 192.603C854.034 192.603 850.897 193.336 848.069 194.618C846.765 186.189 839.717 179.752 831.21 179.752C828.669 179.752 826.283 180.325 824.117 181.355C821.643 174.781 815.5 170.108 808.275 170.108C799.128 170.108 791.66 177.599 791.306 186.99C788.169 188.365 785.407 190.449 783.153 193.038C781.496 188.892 777.541 185.983 772.945 185.983C768.151 185.983 764.085 189.144 762.538 193.565C759.997 192.167 757.103 191.366 754.01 191.366C745.724 191.366 738.764 197.069 736.51 204.903H877.433V204.926Z" fill="#F1F2F2"/>
<path d="M1244.12 447.921C1211.05 432.39 1174.08 427.671 1137.78 428.358C1063.45 429.779 990.56 453.029 916.232 452.617C889.143 452.456 861.679 449.181 835.165 455.068C801.492 462.535 758.672 494.811 741.415 525.712H1319.22C1306.1 490.619 1277.18 463.428 1244.12 447.921Z" fill="#FFEDC5"/>
<path d="M988.66 251.77C988.66 251.77 989.61 230.834 963.073 220.709C963.073 220.709 964.952 220.228 970.144 221.35C970.144 221.35 923.567 193.198 894.733 244.303C894.733 244.303 903.859 198.146 962.035 197.436C962.035 197.436 951.783 179.11 919.281 186.326C919.281 186.326 921.159 183.508 926.528 182.271C926.528 182.271 889.939 183.737 889.961 240.203C887.619 182.867 837.154 190.839 837.154 190.839C841.727 191.846 843.848 195.557 843.848 195.557C810.706 191.938 802.111 216.884 802.111 216.884C862.43 194.939 885.895 243.57 885.895 243.57C856.465 206.553 822.814 224.786 822.814 224.786C827.586 223.481 829.973 225.611 829.973 225.611C796.94 235.69 791.748 270.989 791.748 270.989C836.38 226.871 885.299 250.923 885.299 250.923C835.982 242.379 816.318 283.038 816.318 283.038C820.405 278.64 825.156 277.884 825.156 277.884C797.891 316.848 834.856 348.666 834.856 348.666C819.102 277.953 885.299 256.947 885.299 256.947C885.299 256.947 867.711 304.204 898.423 390.471C915.613 438.758 921.999 467.804 921.999 489.061L954.854 482.647C954.854 482.647 917.69 404.696 905.096 376.658C882.36 326.057 885.785 273.097 891.11 256.97C891.11 256.97 957.616 260.658 956.158 339.297C956.158 339.297 981.125 313.527 966.255 283.657C966.255 283.657 971.204 283.954 974.165 290.322C974.165 290.322 969.15 238.874 893.783 251.748C893.761 251.77 943.586 219.586 988.66 251.77Z" fill="#0F214F"/>
<path d="M1107.02 281.801C1107.02 281.801 1106.27 265.171 1127.33 257.131C1127.33 257.131 1125.85 256.764 1121.72 257.657C1121.72 257.657 1158.7 235.323 1181.57 275.868C1181.57 275.868 1174.32 239.218 1128.15 238.668C1128.15 238.668 1136.28 224.122 1162.08 229.849C1162.08 229.849 1160.6 227.604 1156.34 226.619C1156.34 226.619 1185.37 227.787 1185.37 272.616C1187.23 227.1 1227.31 233.422 1227.31 233.422C1223.66 234.224 1222.01 237.179 1222.01 237.179C1248.3 234.316 1255.15 254.107 1255.15 254.107C1207.27 236.698 1188.64 275.296 1188.64 275.296C1212 245.906 1238.71 260.383 1238.71 260.383C1234.91 259.33 1233.03 261.048 1233.03 261.048C1259.26 269.065 1263.37 297.08 1263.37 297.08C1227.93 262.056 1189.11 281.16 1189.11 281.16C1228.26 274.379 1243.86 306.655 1243.86 306.655C1240.61 303.173 1236.85 302.555 1236.85 302.555C1258.51 333.502 1229.14 358.745 1229.14 358.745C1241.65 302.623 1189.11 285.924 1189.11 285.924C1189.11 285.924 1211.86 336.892 1185.2 401.053C1169.6 438.575 1171.25 458.778 1163.7 486.541L1133.85 481.273C1133.85 481.273 1156.03 437.59 1176.05 396.381C1203.07 340.786 1188.71 298.752 1184.49 285.947C1184.49 285.947 1131.68 288.879 1132.85 351.3C1132.85 351.3 1113.03 330.844 1124.83 307.136C1124.83 307.136 1120.9 307.388 1118.56 312.427C1118.56 312.427 1122.53 271.585 1182.37 281.801C1182.37 281.801 1142.82 256.26 1107.02 281.801Z" fill="#0F214F"/>
<path d="M751.115 122.806C751.115 122.806 741.526 99.5095 715.896 122.714C715.896 122.714 724.955 100.998 745.547 109.337C747.58 87.8729 772.26 87.8729 772.26 87.8729C764.306 91.1715 758.208 95.9361 755.07 100.907C748.375 111.421 751.115 122.806 751.115 122.806Z" fill="#0F214F"/>
<path d="M910.819 31.5912C910.819 31.5912 910.841 0.415186 870.937 6.2793C870.937 6.2793 895.175 -10.6716 911.813 13.0826C928.318 -8.63296 954.92 9.0281 954.92 9.0281C944.138 6.89778 934.549 8.06602 927.677 10.7919C911.349 17.2516 910.819 31.5912 910.819 31.5912Z" fill="#0F214F"/>
<path d="M1037.49 127.204C1037.49 127.204 1037.84 110.963 1016.96 117.469C1016.96 117.469 1027.79 107.275 1037.69 117.812C1044.36 105.832 1058.77 112.612 1058.77 112.612C1053.27 112.36 1048.52 113.46 1045.4 115.499C1038.79 119.805 1037.49 127.204 1037.49 127.204Z" fill="#0F214F"/>
<path d="M1147.39 32.8969C1147.39 32.8969 1162.59 13.5407 1131.33 0.987851C1131.33 0.987851 1153.75 -0.775962 1156.16 21.6726C1175.16 13.6782 1186.48 35.9893 1186.48 35.9893C1180.05 30.3085 1173.26 26.987 1167.63 26.4143C1155.72 25.2003 1147.39 32.8969 1147.39 32.8969Z" fill="#0F214F"/>
<path d="M1313.19 187.517C1313.19 187.517 1312.46 173.109 1296.6 175.789C1296.6 175.789 1306.7 170.108 1312.15 175.285C1313.48 176.545 1314.41 178.102 1314.89 179.958C1320.35 169.65 1333.94 178.057 1333.94 178.057C1319.09 174.666 1313.19 187.517 1313.19 187.517Z" fill="#0F214F"/>
<path d="M1336.35 49.2065C1336.35 49.2065 1351.39 28.1552 1326.21 12.9222C1326.21 12.9222 1346.69 17.0684 1348.54 30.8582C1348.99 34.2255 1348.54 37.5012 1347.2 40.6852C1366.33 32.7824 1375.96 60.8431 1375.96 60.8431C1358.91 38.28 1336.35 49.2065 1336.35 49.2065Z" fill="#0F214F"/>
<path opacity="0.8" d="M1192.86 155.242C1192.29 150.477 1188.38 146.789 1183.63 146.789C1183.63 139.344 1177.79 133.297 1170.61 133.297C1166.75 133.297 1163.28 135.038 1160.89 137.81C1159.83 137.535 1158.75 137.374 1157.6 137.374C1157.47 137.374 1157.33 137.374 1157.2 137.374C1155.61 131.716 1150.55 127.57 1144.58 127.57C1137.32 127.57 1131.44 133.663 1131.44 141.2C1131.44 141.314 1131.44 141.452 1131.44 141.566C1130.62 141.337 1129.76 141.2 1128.88 141.2C1127.73 141.2 1126.64 141.406 1125.63 141.795C1123.99 138.978 1121.03 137.099 1117.63 137.099C1114.42 137.099 1111.6 138.772 1109.92 141.337C1109.39 141.246 1108.86 141.2 1108.3 141.2C1103.16 141.2 1098.98 145.529 1098.98 150.866C1098.98 151.027 1098.98 151.164 1098.98 151.324C1097.77 150.935 1096.48 150.729 1095.14 150.729C1091.25 150.729 1087.78 152.47 1085.37 155.242H1192.86Z" fill="#F1F2F2"/>
<path opacity="0.8" d="M749.834 48.7483C748.508 46.2514 745.945 44.5563 742.984 44.5563C741.857 44.5563 740.797 44.8083 739.825 45.2435C739.383 42.3802 736.974 40.1812 734.08 40.1812C733.218 40.1812 732.401 40.3873 731.649 40.7309C730.81 38.4861 728.711 36.9055 726.258 36.9055C723.143 36.9055 720.602 39.4711 720.469 42.6551C719.409 43.1132 718.459 43.8233 717.685 44.7167C717.111 43.2965 715.763 42.3115 714.216 42.3115C712.581 42.3115 711.189 43.3881 710.681 44.8999C709.819 44.4189 708.825 44.144 707.765 44.144C704.936 44.144 702.572 46.0911 701.799 48.7712H749.834V48.7483Z" fill="#F1F2F2"/>
<path opacity="0.8" d="M900.323 118.957C900.898 116.3 903.174 114.33 905.913 114.33C907.526 114.33 909.007 115.04 910.045 116.163C911.813 114.582 914 113.551 916.431 113.254C916.607 108.352 920.496 104.434 925.291 104.434C926.153 104.434 926.992 104.572 927.765 104.801C929.157 101.64 932.229 99.4408 935.786 99.4408C940.647 99.4408 944.602 103.541 944.602 108.581C944.602 109.291 944.514 109.955 944.381 110.619C945.95 110.871 947.408 111.421 948.69 112.246C950.214 111.123 952.092 110.482 954.103 110.482C957.616 110.482 960.665 112.475 962.3 115.407C963.228 114.743 964.355 114.353 965.548 114.353C968.288 114.353 970.564 116.346 971.138 118.98H900.323V118.957Z" fill="#F1F2F2"/>
<path d="M1023.77 597.341C1137.19 597.341 1229.14 595.875 1229.14 594.066C1229.14 592.256 1137.19 590.79 1023.77 590.79C910.344 590.79 818.395 592.256 818.395 594.066C818.395 595.875 910.344 597.341 1023.77 597.341Z" fill="#4B4B4B"/>
<path d="M939.299 471.102C939.299 471.102 938.924 473.553 939.299 475.569C939.608 477.287 941.398 480.379 941.398 480.379C941.531 480.677 941.951 480.586 941.951 480.265C941.951 478.364 941.663 474.653 939.852 470.988C939.719 470.713 939.299 470.804 939.299 471.102Z" fill="#808285"/>
<path d="M939.321 482.624C939.189 482.349 938.835 482.304 938.636 482.51L938.614 476.165L939.277 476.21L939.321 482.624Z" fill="#808285"/>
<path d="M939.918 484.182C938.813 484.732 938.062 484.182 938.062 484.182L938.548 482.67C938.57 482.601 938.592 482.556 938.636 482.51C938.835 482.304 939.189 482.349 939.321 482.624C939.321 482.624 939.321 482.647 939.343 482.647L939.918 484.182Z" fill="#6D6E71"/>
<path d="M939.387 474.905L938.239 475.546C937.951 475.707 938.04 476.142 938.393 476.165L939.697 476.233C939.675 476.256 939.984 475.729 939.387 474.905Z" fill="#6D6E71"/>
<path d="M1200.44 568.547H1188.66L1200.64 564.287L1200.44 568.547Z" fill="#0F214F"/>
<path d="M855.249 558.652L849.372 544.564C848.753 543.052 846.566 543.144 846.08 544.702C844.71 548.985 842.876 555.788 842.39 562.431C841.97 568.089 846.433 572.946 852.156 572.946C852.598 572.946 852.929 572.602 852.951 572.167L852.996 567.242L855.249 558.652Z" fill="#0F214F"/>
<path d="M874.649 562.5L865.833 572.258C864.905 573.289 863.535 573.839 862.143 573.77L857.105 573.495C853.305 573.289 850.344 570.174 850.344 566.417V562.5L852.664 559.614H860.972L874.627 556.842V562.5H874.649Z" fill="#0F214F"/>
<path d="M882.935 552.994C882.935 570.724 897.407 585.063 915.26 585.063C926.749 585.063 936.824 579.107 942.569 570.151C941.199 569.555 940.095 568.433 939.542 566.99C937.554 561.859 933.864 552.788 931.345 549.535C927.743 544.908 917.248 534.531 901.097 534.806C896.567 534.875 891.883 535.218 887.331 536.822C884.525 541.54 882.935 547.084 882.935 552.994Z" fill="#0F214F"/>
<path d="M870.672 562.752C870.672 580.482 885.144 594.844 902.997 594.844C920.85 594.844 935.322 580.482 935.322 562.752C935.322 545.022 920.85 530.683 902.997 530.683C892.855 530.683 883.796 535.333 877.875 542.594C874.074 547.244 871.578 552.971 870.871 559.224C870.738 560.37 870.672 561.561 870.672 562.752Z" fill="#0F214F"/>
<path d="M902.997 590.744C918.568 590.744 931.19 578.212 931.19 562.752C931.19 547.292 918.568 534.76 902.997 534.76C887.426 534.76 874.803 547.292 874.803 562.752C874.803 578.212 887.426 590.744 902.997 590.744Z" fill="#E6E7E8"/>
<path d="M902.997 584.765C915.248 584.765 925.18 574.91 925.18 562.752C925.18 550.594 915.248 540.739 902.997 540.739C890.745 540.739 880.813 550.594 880.813 562.752C880.813 574.91 890.745 584.765 902.997 584.765Z" fill="#797471"/>
<path d="M902.997 582.154C913.796 582.154 922.551 573.467 922.551 562.752C922.551 552.037 913.796 543.35 902.997 543.35C892.197 543.35 883.443 552.037 883.443 562.752C883.443 573.467 892.197 582.154 902.997 582.154Z" fill="#605C57"/>
<path d="M888.37 562.752C888.37 570.769 894.932 577.275 902.997 577.275C911.084 577.275 917.624 570.769 917.624 562.752C917.624 561.79 917.535 560.851 917.359 559.957C916.033 553.269 910.112 548.229 902.997 548.229C895.882 548.229 889.961 553.269 888.635 559.957C888.458 560.851 888.37 561.79 888.37 562.752Z" fill="#757475"/>
<path d="M888.635 559.957C892.59 563.073 897.561 564.928 902.997 564.928C908.432 564.928 913.404 563.073 917.359 559.957C916.033 553.269 910.112 548.229 902.997 548.229C895.882 548.229 889.961 553.269 888.635 559.957Z" fill="white"/>
<path d="M881.476 562.752C881.476 550.978 891.132 541.38 902.997 541.38C914.862 541.38 924.517 550.955 924.517 562.752C924.517 574.526 914.862 584.124 902.997 584.124C891.132 584.124 881.476 574.526 881.476 562.752ZM881.962 562.752C881.962 574.274 891.397 583.62 902.997 583.62C914.597 583.62 924.031 574.251 924.031 562.752C924.031 551.23 914.597 541.884 902.997 541.884C891.397 541.884 881.962 551.253 881.962 562.752Z" fill="#605C57"/>
<path d="M880.57 562.752C880.57 550.474 890.624 540.487 902.997 540.487C915.37 540.487 925.423 550.474 925.423 562.752C925.423 575.03 915.37 585.017 902.997 585.017C890.646 585.017 880.57 575.03 880.57 562.752ZM881.079 562.752C881.079 574.755 890.911 584.513 903.019 584.513C915.105 584.513 924.959 574.755 924.959 562.752C924.959 550.749 915.127 540.991 903.019 540.991C890.911 540.991 881.079 550.749 881.079 562.752Z" fill="#605C57"/>
<path d="M900.942 546.122H905.604C905.715 546.122 905.803 546.03 905.803 545.916V544.702C905.803 544.587 905.715 544.495 905.604 544.495H900.942C900.832 544.495 900.743 544.587 900.743 544.702V545.916C900.743 546.03 900.832 546.122 900.942 546.122Z" fill="#0F214F"/>
<path d="M889.254 553.04L892.281 549.718C892.391 549.604 892.369 549.42 892.259 549.329L891.441 548.596C891.331 548.504 891.154 548.504 891.043 548.619L888.016 551.94C887.906 552.055 887.928 552.238 888.038 552.329L888.856 553.062C888.966 553.177 889.143 553.154 889.254 553.04Z" fill="#0F214F"/>
<path d="M886.249 564.791V560.187C886.249 560.072 886.16 559.98 886.05 559.98H884.79C884.68 559.98 884.592 560.072 884.592 560.187V564.791C884.592 564.905 884.68 564.997 884.79 564.997H886.05C886.16 564.997 886.249 564.905 886.249 564.791Z" fill="#0F214F"/>
<path d="M892.568 575.901L889.386 572.739C889.276 572.625 889.099 572.625 888.989 572.739L888.215 573.518C888.105 573.633 888.105 573.793 888.215 573.908L891.397 577.069C891.507 577.183 891.684 577.183 891.795 577.069L892.568 576.29C892.678 576.198 892.678 576.015 892.568 575.901Z" fill="#0F214F"/>
<path d="M905.074 579.382H900.412C900.301 579.382 900.213 579.474 900.213 579.589V580.803C900.213 580.917 900.301 581.009 900.412 581.009H905.074C905.184 581.009 905.273 580.917 905.273 580.803V579.589C905.273 579.474 905.184 579.382 905.074 579.382Z" fill="#0F214F"/>
<path d="M916.254 573.129L913.072 576.29C912.962 576.404 912.962 576.565 913.072 576.679L913.846 577.458C913.956 577.573 914.133 577.573 914.243 577.458L917.425 574.297C917.535 574.183 917.535 574.022 917.425 573.908L916.652 573.129C916.541 573.014 916.364 573.014 916.254 573.129Z" fill="#0F214F"/>
<path d="M919.767 560.713V565.318C919.767 565.432 919.855 565.524 919.966 565.524H921.225C921.336 565.524 921.424 565.432 921.424 565.318V560.713C921.424 560.599 921.336 560.507 921.225 560.507H919.966C919.855 560.507 919.767 560.599 919.767 560.713Z" fill="#0F214F"/>
<path d="M913.448 549.604L916.629 552.765C916.74 552.879 916.917 552.879 917.027 552.765L917.801 551.986C917.911 551.871 917.911 551.711 917.801 551.597L914.619 548.435C914.508 548.321 914.332 548.321 914.221 548.435L913.448 549.214C913.337 549.306 913.337 549.489 913.448 549.604Z" fill="#0F214F"/>
<path d="M902.997 567.563C905.669 567.563 907.836 565.409 907.836 562.752C907.836 560.095 905.669 557.942 902.997 557.942C900.324 557.942 898.158 560.095 898.158 562.752C898.158 565.409 900.324 567.563 902.997 567.563Z" fill="#E6E7E8"/>
<path d="M902.997 567.173C905.45 567.173 907.438 565.194 907.438 562.752C907.438 560.31 905.45 558.331 902.997 558.331C900.544 558.331 898.556 560.31 898.556 562.752C898.556 565.194 900.544 567.173 902.997 567.173Z" fill="#6D6E71"/>
<path d="M868.131 557.827L870.871 559.201C871.578 552.925 874.074 547.221 877.875 542.571C874.273 545.984 870.959 550.84 868.131 557.827Z" fill="#0F214F"/>
<path d="M1100.08 570.792C1105.83 579.657 1115.86 585.521 1127.28 585.521C1145.14 585.521 1159.61 571.159 1159.61 553.429C1159.61 545.801 1156.91 538.792 1152.43 533.271C1148.47 532.011 1143.9 531.301 1138.64 531.324C1131.57 531.347 1112.19 536.066 1103.73 568.158C1103.58 568.753 1103.27 569.28 1102.85 569.716C1102.21 570.38 1101.3 570.769 1100.33 570.769H1100.08V570.792Z" fill="#0F214F"/>
<path d="M1102.87 569.739L1109.32 572.075H1170.61C1174.13 572.51 1178.83 572.075 1178.83 572.075C1178.83 572.075 1178.59 561.882 1173.49 551.711C1168.36 541.495 1158.31 531.278 1138.66 531.347C1131.59 531.37 1112.22 536.089 1103.75 568.181C1103.58 568.777 1103.29 569.303 1102.87 569.739Z" fill="#0F214F"/>
<path d="M1107.53 563.21C1107.53 580.94 1122 595.302 1139.86 595.302C1157.71 595.302 1172.18 580.94 1172.18 563.21C1172.18 545.48 1157.71 531.141 1139.86 531.141C1129.71 531.141 1120.66 535.791 1114.73 543.052C1110.93 547.702 1108.44 553.429 1107.73 559.683C1107.6 560.851 1107.53 562.019 1107.53 563.21Z" fill="#0F214F"/>
<path d="M1139.86 591.202C1155.43 591.202 1168.05 578.67 1168.05 563.21C1168.05 547.751 1155.43 535.218 1139.86 535.218C1124.29 535.218 1111.66 547.751 1111.66 563.21C1111.66 578.67 1124.29 591.202 1139.86 591.202Z" fill="#E6E7E8"/>
<path d="M1139.86 585.224C1152.11 585.224 1162.04 575.368 1162.04 563.21C1162.04 551.053 1152.11 541.197 1139.86 541.197C1127.6 541.197 1117.67 551.053 1117.67 563.21C1117.67 575.368 1127.6 585.224 1139.86 585.224Z" fill="#797471"/>
<path d="M1139.86 582.612C1150.66 582.612 1159.41 573.926 1159.41 563.21C1159.41 552.495 1150.66 543.808 1139.86 543.808C1129.06 543.808 1120.3 552.495 1120.3 563.21C1120.3 573.926 1129.06 582.612 1139.86 582.612Z" fill="#605C57"/>
<path d="M1125.21 563.21C1125.21 571.228 1131.77 577.733 1139.83 577.733C1147.92 577.733 1154.46 571.228 1154.46 563.21C1154.46 562.248 1154.37 561.309 1154.2 560.416C1152.87 553.727 1146.95 548.687 1139.83 548.687C1132.72 548.687 1126.8 553.727 1125.47 560.416C1125.32 561.332 1125.21 562.248 1125.21 563.21Z" fill="#757475"/>
<path d="M1125.49 560.416C1129.45 563.531 1134.42 565.386 1139.86 565.386C1145.29 565.386 1150.26 563.531 1154.22 560.416C1152.89 553.727 1146.97 548.687 1139.86 548.687C1132.74 548.687 1126.8 553.727 1125.49 560.416Z" fill="white"/>
<path d="M1118.34 563.21C1118.34 551.436 1127.99 541.838 1139.86 541.838C1151.72 541.838 1161.38 551.413 1161.38 563.21C1161.38 574.984 1151.72 584.582 1139.86 584.582C1127.99 584.582 1118.34 575.007 1118.34 563.21ZM1118.82 563.21C1118.82 574.732 1128.26 584.078 1139.86 584.078C1151.46 584.078 1160.89 574.709 1160.89 563.21C1160.89 551.711 1151.46 542.342 1139.86 542.342C1128.26 542.342 1118.82 551.711 1118.82 563.21Z" fill="#605C57"/>
<path d="M1117.43 563.21C1117.43 550.932 1127.48 540.945 1139.86 540.945C1152.23 540.945 1162.28 550.932 1162.28 563.21C1162.28 575.488 1152.23 585.476 1139.86 585.476C1127.48 585.476 1117.43 575.488 1117.43 563.21ZM1117.92 563.21C1117.92 575.213 1127.75 584.972 1139.86 584.972C1151.94 584.972 1161.8 575.213 1161.8 563.21C1161.8 551.207 1151.96 541.449 1139.86 541.449C1127.75 541.449 1117.92 551.207 1117.92 563.21Z" fill="#605C57"/>
<path d="M1137.78 546.58H1142.44C1142.55 546.58 1142.64 546.488 1142.64 546.374V545.16C1142.64 545.045 1142.55 544.954 1142.44 544.954H1137.78C1137.67 544.954 1137.58 545.045 1137.58 545.16V546.374C1137.58 546.488 1137.67 546.58 1137.78 546.58Z" fill="#0F214F"/>
<path d="M1126.09 553.521L1129.12 550.199C1129.23 550.085 1129.21 549.901 1129.1 549.81L1128.28 549.077C1128.17 548.985 1127.99 548.985 1127.88 549.1L1124.85 552.421C1124.74 552.536 1124.77 552.719 1124.88 552.81L1125.69 553.544C1125.83 553.635 1126 553.635 1126.09 553.521Z" fill="#0F214F"/>
<path d="M1123.09 565.249V560.645C1123.09 560.53 1123 560.438 1122.89 560.438H1121.63C1121.52 560.438 1121.43 560.53 1121.43 560.645V565.249C1121.43 565.363 1121.52 565.455 1121.63 565.455H1122.89C1123 565.478 1123.09 565.363 1123.09 565.249Z" fill="#0F214F"/>
<path d="M1129.41 576.382L1126.22 573.22C1126.11 573.106 1125.94 573.106 1125.83 573.22L1125.05 573.999C1124.94 574.114 1124.94 574.274 1125.05 574.389L1128.23 577.55C1128.34 577.664 1128.52 577.664 1128.63 577.55L1129.41 576.771C1129.52 576.657 1129.52 576.473 1129.41 576.382Z" fill="#0F214F"/>
<path d="M1141.91 579.84H1137.25C1137.14 579.84 1137.05 579.932 1137.05 580.047V581.261C1137.05 581.375 1137.14 581.467 1137.25 581.467H1141.91C1142.02 581.467 1142.11 581.375 1142.11 581.261V580.047C1142.11 579.955 1142.02 579.84 1141.91 579.84Z" fill="#0F214F"/>
<path d="M1153.11 573.587L1149.93 576.748C1149.82 576.863 1149.82 577.023 1149.93 577.138L1150.71 577.916C1150.82 578.031 1150.99 578.031 1151.1 577.916L1154.28 574.755C1154.39 574.641 1154.39 574.48 1154.28 574.366L1153.51 573.587C1153.4 573.472 1153.2 573.472 1153.11 573.587Z" fill="#0F214F"/>
<path d="M1156.6 561.171V565.776C1156.6 565.89 1156.69 565.982 1156.8 565.982H1158.06C1158.17 565.982 1158.26 565.89 1158.26 565.776V561.171C1158.26 561.057 1158.17 560.965 1158.06 560.965H1156.8C1156.69 560.965 1156.6 561.057 1156.6 561.171Z" fill="#0F214F"/>
<path d="M1150.29 550.062L1153.47 553.223C1153.58 553.337 1153.75 553.337 1153.86 553.223L1154.64 552.444C1154.75 552.329 1154.75 552.169 1154.64 552.055L1151.46 548.893C1151.35 548.779 1151.17 548.779 1151.06 548.893L1150.29 549.672C1150.17 549.787 1150.17 549.947 1150.29 550.062Z" fill="#0F214F"/>
<path d="M1139.86 568.021C1142.53 568.021 1144.7 565.867 1144.7 563.21C1144.7 560.553 1142.53 558.4 1139.86 558.4C1137.18 558.4 1135.02 560.553 1135.02 563.21C1135.02 565.867 1137.18 568.021 1139.86 568.021Z" fill="#E6E7E8"/>
<path d="M1139.86 567.631C1142.31 567.631 1144.3 565.652 1144.3 563.21C1144.3 560.769 1142.31 558.789 1139.86 558.789C1137.4 558.789 1135.42 560.769 1135.42 563.21C1135.42 565.652 1137.4 567.631 1139.86 567.631Z" fill="#6D6E71"/>
<path d="M864.441 558.216H849.615C848.621 558.216 847.737 558.812 847.339 559.705L845.041 565.089C844.356 566.669 845.572 568.433 847.317 568.387L861.657 567.929C863.866 567.86 865.634 566.051 865.634 563.852V559.408C865.634 558.766 865.104 558.216 864.441 558.216Z" fill="#0F214F"/>
<path d="M1207.87 539.822L1200.35 550.978L1199.29 565.02H1200.66C1206.19 565.02 1210.65 560.576 1210.65 555.101V540.67C1210.65 539.158 1208.7 538.562 1207.87 539.822Z" fill="#0F214F"/>
<path d="M846.455 514.854C846.389 523.055 855.559 546.443 860.928 559.408C862.143 562.363 866.407 562.34 867.556 559.339C867.755 558.812 867.954 558.308 868.153 557.827C872.042 548.275 876.792 542.686 881.962 539.41C883.73 538.288 885.542 537.44 887.376 536.799C891.905 535.195 896.589 534.875 901.141 534.783C917.27 534.531 927.787 544.885 931.389 549.512C933.908 552.765 937.598 561.836 939.586 566.967C940.139 568.41 941.243 569.533 942.613 570.128C943.342 570.449 944.138 570.632 944.955 570.632L1100.15 570.77H1100.39C1101.37 570.77 1102.27 570.38 1102.91 569.716C1103.33 569.303 1103.64 568.754 1103.8 568.158C1112.26 536.066 1131.64 531.347 1138.71 531.324C1143.97 531.301 1148.52 532.034 1152.49 533.271C1163.39 536.707 1169.77 544.198 1173.55 551.688C1178.68 561.882 1178.9 572.052 1178.9 572.052L1199.4 564.676C1200.99 564.104 1202.14 562.706 1202.39 561.057C1205.5 539.8 1200.64 517.672 1197.81 507.364C1196.77 503.538 1194.65 500.079 1191.74 497.376C1186.03 492.108 1176.11 483.472 1171.43 482.281C1171.39 482.258 1171.34 482.258 1171.28 482.258C1170.88 482.189 1170.48 482.258 1170.13 482.441L1168.18 483.403C1168.18 483.403 1153.49 457.587 1148.01 445.401C1147.32 443.889 1147.59 442.194 1148.56 440.957C1148.8 440.659 1149.11 440.361 1149.45 440.132L1149.78 439.903C1150.22 439.514 1150.37 438.918 1150.26 438.414C1150.15 437.956 1149.87 437.567 1149.38 437.361C1143.46 434.749 1126.93 427.648 1117.16 425.472C1100.28 421.715 1039.35 409.896 975.005 427.259L971.116 428.267C970.144 428.519 969.901 429.687 970.519 430.305C970.608 430.42 970.74 430.489 970.873 430.58L972.154 431.222L978.739 434.52C978.827 434.566 978.893 434.589 978.96 434.635C981.567 436.147 982.451 439.468 980.948 442.079L959.052 480.196C956.379 484.846 950.391 486.427 945.729 483.724C943.453 482.395 941.332 480.906 940.227 479.417C940.006 479.12 939.675 478.936 939.321 478.891C939.056 478.845 938.791 478.891 938.548 479.005C936.316 480.036 931.212 482.647 927.986 486.175C927.986 486.175 888.259 486.885 857.812 498.934C855.095 500.011 850.344 501.843 847.936 507.272C847.052 509.242 846.478 511.739 846.455 514.854ZM1068.73 444.324C1068.71 441.301 1071.25 438.873 1074.3 439.01L1098.76 440.087C1110.87 440.613 1121.76 447.485 1127.39 458.137L1136.14 474.699C1140.14 481.937 1136.34 488.718 1130.33 488.718H1075.18C1071.71 488.718 1068.91 485.946 1068.89 482.487L1068.73 444.324ZM965.769 484.801L990.957 444.141C991.731 442.881 993.101 442.125 994.581 442.102L1057.22 441.69C1059.1 441.667 1060.62 443.179 1060.62 445.057V480.288C1060.62 485.648 1056.25 489.634 1050.84 489.634L970.696 489.955H970.674H968.663C966.012 489.977 964.377 487.068 965.769 484.801Z" fill="#D1D3D4"/>
<path d="M1051.81 504.89C1051.81 505.806 1051.37 506.676 1050.59 507.387C1049.24 508.669 1046.88 509.494 1044.21 509.494C1040.01 509.494 1036.61 507.432 1036.61 504.867C1036.61 502.324 1040.01 500.24 1044.21 500.24C1046.84 500.24 1049.13 501.041 1050.5 502.278C1051.34 503.034 1051.81 503.928 1051.81 504.89Z" fill="#0F214F"/>
<path opacity="0.2" d="M1058.28 504.89C1058.28 505.646 1057.97 506.333 1057.46 506.837C1056.96 507.341 1056.27 507.639 1055.52 507.639L1050.61 507.387C1051.39 506.676 1051.83 505.806 1051.83 504.89C1051.83 503.928 1051.34 503.057 1050.53 502.301L1055.52 502.141C1057.02 502.141 1058.28 503.378 1058.28 504.89Z" fill="#58595B"/>
<path d="M1039.88 506.218L1055.25 506.791C1056.31 506.791 1057.18 505.921 1057.18 504.867C1057.18 503.813 1056.31 502.943 1055.25 502.943L1039.88 503.515C1038.82 503.515 1037.95 503.813 1037.95 504.867C1037.95 505.943 1038.82 506.218 1039.88 506.218Z" fill="#F1F2F2"/>
<path opacity="0.55" d="M1147.94 445.401C1153.44 457.61 1168.12 483.403 1168.12 483.403L1168.85 483.037L1170.08 482.441C1170.08 482.441 1170.04 482.304 1169.97 482.075C1168.93 478.914 1161.11 455.846 1148.94 441.438C1148.83 441.301 1148.74 441.186 1148.63 441.072C1148.61 441.026 1148.56 440.98 1148.52 440.934H1148.5C1147.5 442.194 1147.26 443.912 1147.94 445.401Z" fill="#FDFFFB"/>
<path opacity="0.55" d="M940.205 479.417C940.824 480.242 941.73 481.067 942.812 481.846C943.696 482.51 944.69 483.128 945.707 483.724C946.48 484.182 947.32 484.503 948.137 484.732C952.269 485.808 956.798 484.067 959.03 480.196L980.926 442.079C981.722 440.705 981.832 439.125 981.39 437.727C980.993 436.467 980.153 435.345 978.916 434.635C978.849 434.589 978.761 434.543 978.695 434.52L972.11 431.222C972.11 431.222 972.088 431.245 972.066 431.29C972.022 431.336 971.978 431.428 971.911 431.519C969.503 434.887 947.275 466.177 940.426 479.097C940.338 479.188 940.271 479.303 940.205 479.417Z" fill="#FDFFFB"/>
<path d="M1068.78 443.637L1093.21 444.714C1105.32 445.241 1116.21 452.113 1121.85 462.764L1130.6 479.326C1132.5 482.762 1132.63 486.083 1131.64 488.626C1136.87 487.733 1139.83 481.433 1136.14 474.722L1127.39 458.16C1121.76 447.508 1110.87 440.636 1098.76 440.11L1074.3 439.033C1071.49 438.895 1069.11 440.957 1068.78 443.637Z" fill="#58595B"/>
<path d="M1068.53 482.51L1068.38 444.324C1068.38 444.05 1068.4 443.798 1068.42 443.568L1068.47 443.248L1093.24 444.347C1105.41 444.874 1116.5 451.884 1122.18 462.581L1130.93 479.143C1132.76 482.441 1133.12 485.854 1131.99 488.741L1131.92 488.924L1131.73 488.97C1131.28 489.061 1130.84 489.084 1130.36 489.084H1075.21C1071.54 489.107 1068.53 486.152 1068.53 482.51ZM1130.29 479.486L1121.54 462.925C1115.99 452.433 1105.12 445.584 1093.21 445.057L1069.11 444.004C1069.11 444.118 1069.11 444.21 1069.11 444.324L1069.26 482.51C1069.28 485.74 1071.94 488.374 1075.21 488.374H1130.36C1130.73 488.374 1131.06 488.351 1131.39 488.305C1132.37 485.648 1131.97 482.533 1130.29 479.486Z" fill="#0F214F"/>
<path d="M1068.53 482.51L1068.38 444.324C1068.38 444.05 1068.4 443.798 1068.42 443.568L1068.47 443.248L1093.24 444.347C1105.41 444.874 1116.5 451.884 1122.18 462.581L1130.93 479.143C1132.76 482.441 1133.12 485.854 1131.99 488.741L1131.92 488.924L1131.73 488.97C1131.28 489.061 1130.84 489.084 1130.36 489.084H1075.21C1071.54 489.107 1068.53 486.152 1068.53 482.51ZM1130.29 479.486L1121.54 462.925C1115.99 452.433 1105.12 445.584 1093.21 445.057L1069.11 444.004C1069.11 444.118 1069.11 444.21 1069.11 444.324L1069.26 482.51C1069.28 485.74 1071.94 488.374 1075.21 488.374H1130.36C1130.73 488.374 1131.06 488.351 1131.39 488.305C1132.37 485.648 1131.97 482.533 1130.29 479.486Z" fill="#0F214F"/>
<path d="M966.83 489.428C966.785 488.809 966.94 488.168 967.316 487.549L991.576 448.379C992.327 447.165 993.653 446.432 995.067 446.432L1055.41 446.042C1057.22 446.019 1058.7 447.485 1058.7 449.272V483.197C1058.7 484.48 1058.44 485.694 1057.97 486.793C1059.63 485.144 1060.67 482.876 1060.67 480.288V445.057C1060.67 443.179 1059.12 441.667 1057.26 441.69L994.625 442.102C993.145 442.125 991.775 442.881 991.002 444.141L965.813 484.8C964.731 486.473 965.349 488.488 966.83 489.428Z" fill="#58595B"/>
<path d="M966.631 489.725L966.476 489.634V489.451C966.432 488.718 966.609 488.007 967.006 487.366L991.267 448.196C992.084 446.867 993.498 446.088 995.067 446.065L1055.41 445.676C1056.4 445.676 1057.31 446.042 1057.99 446.73C1058.68 447.417 1059.05 448.31 1059.05 449.272V483.197C1059.05 484.503 1058.79 485.763 1058.28 486.931L1058.21 487.045C1056.29 488.947 1053.69 489.977 1050.88 489.977L968.708 490.321C967.934 490.321 967.227 490.115 966.631 489.725ZM1058.33 483.197V449.272C1058.33 448.493 1058.02 447.783 1057.46 447.234C1056.91 446.684 1056.16 446.409 1055.39 446.386L995.045 446.775C993.741 446.775 992.548 447.44 991.841 448.562L967.581 487.733C967.294 488.191 967.161 488.695 967.139 489.199C967.581 489.451 968.111 489.588 968.641 489.588L1050.81 489.244C1053.42 489.244 1055.83 488.282 1057.6 486.564C1058.08 485.534 1058.33 484.388 1058.33 483.197Z" fill="#0F214F"/>
<path d="M966.631 489.725L966.476 489.634V489.45C966.432 488.717 966.609 488.007 967.006 487.389L991.267 448.218C992.084 446.89 993.498 446.111 995.067 446.111L1055.41 445.722C1056.38 445.676 1057.29 446.088 1057.97 446.752C1058.66 447.44 1059.03 448.333 1059.03 449.295V483.197C1059.03 484.503 1058.77 485.763 1058.26 486.931L1058.19 487.045C1056.29 488.947 1053.69 489.977 1050.86 489.977L968.686 490.321C967.956 490.321 967.227 490.115 966.631 489.725ZM1058.33 483.197V449.272C1058.33 448.493 1058.02 447.76 1057.46 447.211C1056.91 446.661 1056.18 446.363 1055.39 446.363L995.045 446.752C993.719 446.752 992.526 447.44 991.841 448.539L967.581 487.71C967.294 488.168 967.139 488.672 967.139 489.198C967.603 489.45 968.111 489.588 968.664 489.588L1050.84 489.244C1053.44 489.244 1055.85 488.282 1057.64 486.541C1058.1 485.533 1058.33 484.388 1058.33 483.197Z" fill="#0F214F"/>
<path opacity="0.55" d="M1068.73 444.324L1068.89 482.51C1068.91 485.946 1071.72 488.74 1075.18 488.74H1130.33C1136.34 488.74 1140.14 481.96 1136.14 474.721L1127.37 458.16C1121.74 447.508 1110.85 440.636 1098.74 440.109L1074.28 439.033C1071.25 438.895 1068.71 441.301 1068.73 444.324Z" fill="#FDFFFB"/>
<path opacity="0.55" d="M1057.22 441.713L994.581 442.125C993.101 442.125 991.731 442.904 990.957 444.164L965.769 484.823C964.377 487.091 966.012 490 968.686 489.978L1050.86 489.657C1056.25 489.657 1060.62 485.671 1060.62 480.311V445.08C1060.62 443.202 1059.1 441.69 1057.22 441.713Z" fill="#FDFFFB"/>
<path d="M1187.69 515.221L1191.27 524.635L1197.48 540.991L1202.72 538.036C1203.8 537.417 1204.33 536.18 1204 534.989C1203.69 533.821 1203.23 532.218 1202.65 530.408C1201.9 528.026 1200.91 525.3 1199.76 522.734C1198.43 519.779 1196.86 517.007 1195.09 515.175C1194.59 514.671 1193.9 514.373 1193.17 514.327C1192.16 514.281 1190.61 514.327 1189 514.785C1188.55 514.877 1188.11 515.037 1187.69 515.221Z" fill="#AD0303"/>
<path d="M1187.69 515.221L1191.27 524.635L1199.76 522.734C1198.43 519.779 1196.86 517.007 1195.09 515.175C1194.59 514.671 1193.9 514.373 1193.17 514.327C1192.16 514.281 1190.61 514.327 1189 514.785C1188.55 514.877 1188.11 515.037 1187.69 515.221Z" fill="#FCA713"/>
<path opacity="0.47" d="M1188.97 514.762L1196.84 532.767L1202.63 530.385C1200.99 525.277 1198.36 518.542 1195.07 515.152C1194.56 514.648 1193.88 514.35 1193.15 514.304C1192.16 514.281 1190.59 514.327 1188.97 514.762Z" fill="#E6E7E8"/>
<path d="M1187.69 515.221L1184.64 516.183L1194.63 542.571L1197.48 540.968L1187.69 515.221Z" fill="#58595B"/>
<path d="M852.023 507.272L851.582 530.934C851.582 530.934 848.356 530.133 847.582 529.194L847.958 508.875C847.936 508.875 849.46 507.203 852.023 507.272Z" fill="#58595B"/>
<path d="M847.56 528.827C847.56 528.827 844.489 519.939 847.914 509.723L847.56 528.827Z" fill="#D1D3D4"/>
<path d="M1202.92 552.146L1185.15 559.385C1184.11 559.82 1183.45 560.851 1183.52 561.973L1183.8 566.692C1183.89 567.952 1185.79 569.487 1187.03 569.12L1203.09 563.393C1204.31 563.027 1205.1 561.859 1204.99 560.576L1204.24 552.902C1204.15 552.307 1203.49 551.917 1202.92 552.146Z" fill="#0F214F"/>
<path d="M1209.01 541.563L1201.5 552.719L1200.44 566.761H1201.81C1207.33 566.761 1211.8 562.317 1211.8 556.842V542.411C1211.82 540.899 1209.85 540.326 1209.01 541.563Z" fill="#0F214F"/>
<path d="M852.664 559.591L846.787 545.503C846.168 543.991 843.981 544.083 843.495 545.641C842.125 549.924 840.291 556.728 839.805 563.37C839.385 569.028 843.848 573.885 849.571 573.885C850.013 573.885 850.344 573.541 850.366 573.106L850.411 568.181L852.664 559.591Z" fill="#0F214F"/>
<path d="M865.457 559.591H850.631C849.637 559.591 848.753 560.186 848.356 561.08L846.058 566.463C845.373 568.043 846.588 569.807 848.334 569.761L862.673 569.303C864.883 569.234 866.651 567.425 866.651 565.226V560.782C866.651 560.118 866.12 559.591 865.457 559.591Z" fill="#0F214F"/>
<path d="M853.46 540.395L849.726 552.536L852.664 559.591H860.994L853.46 540.395Z" fill="#0F214F"/>
<path d="M1137.8 436.765C1137.8 436.765 1056.51 412.736 981.633 431.405C981.633 431.405 1055.32 420.593 1137.8 436.765Z" fill="#E6E7E8"/>
<path d="M1169.95 482.097C1168.91 478.936 1161.09 455.869 1148.92 441.461C1153.51 447.508 1168.82 483.059 1168.82 483.059L1170.06 482.464C1170.06 482.464 1170.02 482.326 1169.95 482.097Z" fill="#BCBEC0"/>
<path d="M1148.5 440.957C1148.54 441.003 1148.58 441.05 1148.63 441.096C1148.58 441.073 1148.54 441.003 1148.5 440.957Z" fill="#BCBEC0"/>
<path d="M940.205 479.417C940.824 480.242 941.73 481.067 942.812 481.846C945.751 472.477 970.807 433.192 972.044 431.268C972 431.313 971.956 431.405 971.889 431.497C969.481 434.864 947.253 466.154 940.404 479.074C940.338 479.188 940.271 479.303 940.205 479.417Z" fill="#D1D3D4"/>
<path d="M948.137 484.709C952.269 485.786 956.798 484.045 959.03 480.173L980.926 442.057C981.722 440.682 981.832 439.102 981.39 437.704C978.916 441.026 958.809 468.01 948.137 484.709Z" fill="#D1D3D4"/>
<path d="M1112.28 493.757C1117.23 493.734 1165.57 496.185 1165.57 496.185L934.527 496.85C934.527 496.85 946.127 495.269 950.059 495.109C1010.49 492.658 1056.01 493.963 1112.28 493.757Z" fill="#E6E7E8"/>
<path d="M940.006 479.738C941.045 481.067 942.901 482.487 945.53 484.022C947.099 484.938 948.822 485.396 950.59 485.396C951.473 485.396 952.357 485.282 953.219 485.052C955.826 484.342 958.014 482.693 959.339 480.357L981.236 442.24C982.826 439.491 981.876 435.918 979.114 434.314C979.026 434.268 978.96 434.222 978.871 434.177L972.309 430.901L972.132 431.199C972.132 431.199 972.066 431.29 971.911 431.497L972.022 431.542L978.584 434.818C978.673 434.864 978.717 434.887 978.783 434.91C981.213 436.33 982.053 439.445 980.661 441.873L958.765 479.99C957.505 482.166 955.495 483.701 953.064 484.342C950.634 484.984 948.115 484.64 945.928 483.403C943.298 481.868 941.486 480.471 940.536 479.188L940.426 479.074C940.36 479.188 940.293 479.303 940.249 479.417L940.006 479.738Z" fill="#422603"/>
<path d="M1147.61 445.561C1150.33 451.609 1155.35 461.046 1159.7 469.018C1164.05 476.989 1167.74 483.472 1167.81 483.609L1167.98 483.907L1170.24 482.785L1170.08 482.464C1170.08 482.464 1170.04 482.327 1169.97 482.097L1168.29 482.945C1166.66 480.036 1153.4 456.602 1148.3 445.263C1148.05 444.737 1147.94 444.187 1147.94 443.637C1147.94 442.79 1148.21 441.942 1148.76 441.255C1148.69 441.163 1148.61 441.072 1148.54 440.98L1148.25 440.751C1147.13 442.102 1146.88 443.958 1147.61 445.561Z" fill="#422603"/>
<g opacity="0.32">
<path opacity="0.32" d="M1086.01 488.74L1118.51 447.485C1122.11 450.349 1125.16 453.945 1127.39 458.137L1129.34 461.802L1108.13 488.717H1086.01V488.74Z" fill="#D1D3D4"/>
<path opacity="0.32" d="M1068.73 445.653L1073.95 439.033C1074.06 439.033 1074.17 439.033 1074.3 439.033L1095.33 439.949L1068.84 473.576L1068.73 445.653Z" fill="#D1D3D4"/>
<path opacity="0.32" d="M1075.18 488.74C1071.72 488.74 1068.91 485.969 1068.89 482.51V480.128L1100.33 440.201C1104.55 440.591 1108.59 441.736 1112.28 443.545L1076.69 488.718H1075.18V488.74Z" fill="#D1D3D4"/>
<path opacity="0.32" d="M1112.83 488.74L1131.22 465.399L1136.14 474.722C1136.5 475.34 1136.76 475.959 1137.01 476.577L1127.42 488.74H1112.83Z" fill="#D1D3D4"/>
</g>
<g opacity="0.32">
<path opacity="0.32" d="M1010.49 489.794L1048.34 441.759L1057.22 441.69C1059.1 441.667 1060.62 443.179 1060.62 445.057V454.22L1032.67 489.702L1010.49 489.794Z" fill="#D1D3D4"/>
<path opacity="0.32" d="M968.685 489.955C966.012 489.955 964.377 487.069 965.769 484.801L975.27 469.454L996.835 442.08L1019.06 441.943L981.28 489.91L968.685 489.955Z" fill="#D1D3D4"/>
<path opacity="0.32" d="M986.494 489.887L1024.28 441.92L1038.95 441.828L1001.12 489.841L986.494 489.887Z" fill="#D1D3D4"/>
<path opacity="0.32" d="M1050.86 489.634L1037.38 489.68L1060.62 460.176V478.707L1052.07 489.565C1051.67 489.611 1051.25 489.634 1050.86 489.634Z" fill="#D1D3D4"/>
</g>
<path d="M1068.53 482.51L1068.38 444.324C1068.38 444.049 1068.4 443.798 1068.42 443.591C1068.78 440.705 1071.38 438.552 1074.32 438.666L1098.78 439.743C1110.98 440.27 1122.05 447.256 1127.73 457.977L1136.48 474.538C1138.42 478.043 1138.71 481.777 1137.27 484.732C1136.17 487 1134.13 488.557 1131.73 488.97C1131.28 489.061 1130.84 489.084 1130.36 489.084H1075.21C1071.54 489.107 1068.53 486.152 1068.53 482.51ZM1069.13 443.683C1069.11 443.866 1069.09 444.095 1069.09 444.324L1069.24 482.51C1069.26 485.74 1071.91 488.374 1075.18 488.374H1130.33C1130.78 488.374 1131.17 488.328 1131.57 488.259C1133.76 487.893 1135.59 486.473 1136.59 484.411C1137.91 481.662 1137.65 478.181 1135.81 474.859L1127.06 458.297C1121.52 447.806 1110.67 440.957 1098.74 440.43L1074.28 439.354C1074.21 439.354 1074.12 439.354 1074.06 439.354C1071.58 439.377 1069.44 441.232 1069.13 443.683Z" fill="#0F214F"/>
<path d="M966.631 489.725C964.885 488.603 964.377 486.358 965.46 484.617L990.648 443.958C991.488 442.583 992.968 441.782 994.581 441.759L1057.22 441.347C1058.21 441.324 1059.16 441.713 1059.89 442.423C1060.6 443.133 1061 444.072 1061 445.057V480.288C1061 482.853 1060 485.259 1058.21 487.045C1056.29 488.947 1053.69 489.977 1050.88 489.977L968.708 490.321C967.934 490.321 967.227 490.115 966.631 489.725ZM1057.22 442.057L994.581 442.469C993.211 442.492 991.974 443.179 991.245 444.324L966.056 484.984C965.084 486.564 965.769 488.328 967.006 489.13C967.492 489.451 968.067 489.611 968.663 489.611L1050.84 489.267C1053.46 489.267 1055.89 488.305 1057.66 486.541C1059.32 484.892 1060.25 482.67 1060.25 480.288V445.057C1060.25 444.256 1059.94 443.5 1059.34 442.927C1058.77 442.354 1058.02 442.057 1057.22 442.057Z" fill="#0F214F"/>
<path d="M1114.27 537.875C1114.27 537.875 1108.88 544.221 1104.17 551.299C1103.31 552.582 1101.94 555.743 1100.75 558.698C1100.26 560.347 1099.8 561.996 1099.42 563.393C1098.85 565.524 1096.93 567.013 1094.72 567.059C1088.33 567.173 1075.91 566.99 1067.52 567.081C1067.52 567.081 1092.79 566.028 1095.14 562.958C1097.46 559.935 1098.58 554.597 1102.89 549.581C1108.3 543.258 1113.92 537.944 1114.27 537.875Z" fill="#E6E7E8"/>
<path d="M931.19 543.35C931.19 543.35 935.41 548.298 939.078 553.841C939.741 554.849 940.824 557.3 941.752 559.614C942.127 560.897 942.503 562.202 942.79 563.279C943.232 564.951 944.735 566.096 946.48 566.142C951.474 566.234 952.667 565.982 959.229 566.073C959.229 566.073 947.982 565.34 946.149 562.935C944.337 560.576 943.453 556.407 940.095 552.49C935.852 547.565 931.477 543.396 931.19 543.35Z" fill="#E6E7E8"/>
<path d="M1178.83 541.449C1178.83 541.449 1168.73 527.338 1152.52 524.612C1136.3 521.886 1122.89 528.438 1120.35 531.141C1120.35 531.141 1117.05 530.866 1125.54 525.185C1140.17 515.404 1165.6 518.244 1175.27 532.767C1177.64 536.272 1180.86 541.655 1178.83 541.449Z" fill="#E6E7E8"/>
<path d="M925.291 537.051C925.291 537.051 915.414 528.965 901.76 529.308C888.105 529.652 877.764 535.814 875.975 537.967C875.975 537.967 872.66 536.134 879.311 531.622C890.138 524.315 906.864 522.528 919.59 530.568C924.716 533.775 926.992 536.936 925.291 537.051Z" fill="#E6E7E8"/>
<path d="M1008.19 487.504C1007.84 487.526 1007.46 487.549 1007.06 487.572L1008.19 487.504Z" fill="#E6E7E8"/>
<path d="M1007.06 487.595L1005.76 487.688C1006.23 487.641 1006.67 487.618 1007.06 487.595Z" fill="#E6E7E8"/>
<path d="M847.936 507.249C848.245 507.089 870.451 494.559 942.171 489.886L927.986 486.175C927.986 486.175 888.259 486.885 857.812 498.934C855.095 499.988 850.322 501.82 847.936 507.249Z" fill="#E6E7E8"/>
<path d="M953.329 552.146C951.871 533.042 952.91 506.608 953.241 502.393C953.771 495.567 959.604 487.962 960.665 486.862C961.549 485.923 963.051 483.541 963.648 482.556C969.68 472.797 987.511 443.179 987.687 442.881C989.322 440.201 992.283 438.529 995.421 438.529L1058.72 438.437C1058.72 438.437 1058.72 438.437 1058.75 438.437C1060.56 438.437 1061.99 438.964 1063.01 439.995C1064.09 441.094 1064.64 442.721 1064.6 444.737C1064.51 448.447 1064.67 454.014 1064.89 461.71C1065 465.834 1065.13 470.507 1065.24 475.729C1065.79 500.469 1066.35 503.95 1067.8 513.296C1068.89 520.145 1067.91 541.746 1067.87 542.64C1067.87 557.231 1056.82 568.662 1042.73 568.662H971.204C962.057 568.662 954.037 561.24 953.329 552.146ZM1058.77 439.147L995.465 439.239C992.57 439.239 989.831 440.774 988.328 443.248C988.151 443.545 970.299 473.164 964.267 482.922C963.493 484.159 962.079 486.381 961.195 487.343C960.179 488.42 954.501 495.819 953.97 502.439C953.639 506.653 952.6 533.019 954.059 552.077C954.721 560.828 962.433 567.952 971.227 567.952H1042.75C1056.45 567.952 1067.16 556.842 1067.19 542.617C1067.19 542.388 1068.2 520.168 1067.12 513.388C1065.64 504.019 1065.09 500.514 1064.53 475.729C1064.42 470.507 1064.29 465.834 1064.18 461.71C1063.96 454.014 1063.81 448.425 1063.89 444.714C1063.94 442.904 1063.45 441.438 1062.52 440.476C1061.64 439.583 1060.38 439.147 1058.77 439.147Z" fill="#422603"/>
<path d="M964.046 478.432C964.046 478.432 963.604 481.296 964.046 483.678C964.421 485.717 966.52 489.336 966.52 489.336C966.675 489.68 967.183 489.565 967.183 489.199C967.183 486.954 966.83 482.579 964.708 478.272C964.554 477.974 964.046 478.089 964.046 478.432Z" fill="#808285"/>
<path d="M964.09 491.993C963.935 491.673 963.515 491.627 963.294 491.856L963.272 484.388L964.046 484.434L964.09 491.993Z" fill="#808285"/>
<path d="M964.797 493.826C963.493 494.467 962.631 493.826 962.631 493.826L963.206 492.039C963.228 491.97 963.272 491.902 963.316 491.856C963.537 491.627 963.957 491.65 964.112 491.993L964.134 492.016L964.797 493.826Z" fill="#6D6E71"/>
<path d="M964.178 482.899L962.808 483.655C962.477 483.838 962.587 484.365 962.985 484.388L964.51 484.48C964.51 484.48 964.863 483.861 964.178 482.899Z" fill="#6D6E71"/>
<path d="M1145.23 455.594L1157.51 477.814C1158.31 479.257 1157.27 480.998 1155.61 480.998H1146.48C1144.67 480.998 1142.99 479.99 1142.18 478.387L1128.52 451.998C1127.99 450.99 1128.74 449.776 1129.89 449.776H1135.39C1139.46 449.799 1143.24 452.021 1145.23 455.594Z" fill="#939598"/>
<path d="M1147.55 440.728C1148.05 440.339 1147.41 437.91 1145.25 439.01C1143.08 440.109 1143.19 444.599 1143.72 445.538C1144.67 447.302 1162.64 480.998 1163.54 482.693C1165.66 486.679 1175.89 495.315 1178.83 503.767C1178.83 503.767 1188.58 509.86 1188.97 514.762L1195.07 515.152C1195.07 515.152 1194.17 507.043 1193.7 504.363C1193.39 502.553 1191.67 499.209 1187.67 496.826C1183.69 494.444 1177.44 488.488 1167.94 483.884C1166.02 482.945 1151.01 453.968 1147.17 446.455C1146.44 445.012 1146.26 443.339 1146.84 441.827C1147.04 441.369 1147.26 440.957 1147.55 440.728Z" fill="#E6E7E8"/>
<path d="M1138.04 376.2L1131.37 424.602C1130.86 428.29 1127.44 430.878 1123.7 430.374L1046.24 419.86C1042.53 419.356 1039.92 415.943 1040.43 412.255L1047.1 363.853C1047.61 360.165 1051.03 357.577 1054.77 358.081L1132.23 368.595C1135.95 369.099 1138.55 372.512 1138.04 376.2Z" fill="#314123"/>
<path d="M1055.54 358.195L1054.5 365.663L1046.97 364.632L1047.08 363.853C1047.59 360.165 1051.01 357.577 1054.75 358.081L1055.54 358.195Z" fill="#E0FA78"/>
<path d="M1138.04 376.2L1137.93 376.979L1130.4 375.948L1131.44 368.48L1132.23 368.595C1135.95 369.099 1138.55 372.512 1138.04 376.2Z" fill="#E0FA78"/>
<path d="M1048.07 412.484L1047.03 419.951L1046.24 419.837C1042.53 419.333 1039.92 415.92 1040.43 412.232L1040.54 411.453L1048.07 412.484Z" fill="#E0FA78"/>
<path d="M1131.48 423.823L1131.37 424.602C1130.86 428.289 1127.44 430.878 1123.7 430.374L1122.91 430.259L1123.95 422.792L1131.48 423.823Z" fill="#E0FA78"/>
<path d="M1062.52 422.082L1059.72 421.693L1068.22 359.913L1071.05 360.28L1062.52 422.082Z" fill="#0F214F"/>
<path d="M1110.25 428.542L1107.44 428.175L1115.95 366.396L1118.78 366.762L1110.25 428.542Z" fill="#0F214F"/>
<path d="M1100.97 391.639L1086.19 389.623L1087.27 381.812L1102.05 383.805L1100.97 391.639Z" fill="#ED545C"/>
<path d="M1075.8 404.054L1072.73 403.642L1072.89 402.497L1075.96 402.909L1075.8 404.054Z" fill="#FFD0A1"/>
<path d="M1100.81 414.271L1093.66 413.309L1094.41 407.811L1101.59 408.773L1100.81 414.271Z" fill="#ED7D89"/>
<path d="M1098.58 400.206L1092.37 399.359L1093.08 394.227L1099.29 395.075L1098.58 400.206Z" fill="#FFD0A1"/>
<path d="M1127.17 404.993L1125.03 404.696L1125.83 399.015L1127.95 399.313L1127.17 404.993Z" fill="#FF9933"/>
<path d="M1058.88 387.47L1053.66 386.76L1054.46 381.01L1059.67 381.697L1058.88 387.47Z" fill="#ED545C"/>
<path d="M1090.85 374.642L1077.79 372.855L1078.59 367.083L1091.64 368.847L1090.85 374.642Z" fill="#FF9933"/>
<path d="M1076.64 390.975C1078.57 390.975 1080.13 389.426 1080.13 387.516C1080.13 385.605 1078.57 384.057 1076.64 384.057C1074.71 384.057 1073.15 385.605 1073.15 387.516C1073.15 389.426 1074.71 390.975 1076.64 390.975Z" fill="#ED545C"/>
<path d="M1085.39 403.825C1085.33 404.306 1084.62 404.604 1083.8 404.489C1082.98 404.375 1082.39 403.894 1082.45 403.413C1082.52 402.932 1083.23 402.634 1084.04 402.749C1084.86 402.886 1085.46 403.344 1085.39 403.825Z" fill="#FFD0A1"/>
<path d="M1122.31 391.364C1122.22 391.983 1121.54 392.418 1120.79 392.303C1120.04 392.189 1119.48 391.616 1119.57 390.975C1119.66 390.356 1120.35 389.921 1121.1 390.035C1121.85 390.15 1122.4 390.746 1122.31 391.364Z" fill="#FFD0A1"/>
<path d="M1056.03 401.328C1055.85 402.657 1054.72 403.596 1053.55 403.436C1052.36 403.275 1051.54 402.061 1051.74 400.756C1051.92 399.427 1053.04 398.488 1054.22 398.648C1055.41 398.786 1056.2 400 1056.03 401.328Z" fill="#ED545C"/>
<path d="M1080.55 417.34C1080.27 419.493 1078.26 421.005 1076.09 420.707C1073.92 420.41 1072.4 418.417 1072.69 416.264C1072.97 414.11 1074.99 412.599 1077.15 412.896C1079.34 413.194 1080.84 415.187 1080.55 417.34Z" fill="#ED7D89"/>
<path d="M1120.92 412.896C1120.81 413.698 1120.06 414.271 1119.24 414.156C1118.42 414.042 1117.87 413.309 1117.98 412.507C1118.09 411.705 1118.84 411.132 1119.66 411.247C1120.48 411.339 1121.03 412.072 1120.92 412.896Z" fill="#ED7D89"/>
<path d="M1104.46 364.838L1084.33 362.112C1084.22 362.089 1084.15 361.998 1084.18 361.906L1084.49 359.638C1084.51 359.547 1084.6 359.478 1084.68 359.478L1104.81 362.204C1104.92 362.227 1104.99 362.318 1104.97 362.41L1104.66 364.678C1104.66 364.769 1104.57 364.838 1104.46 364.838Z" fill="#E5FF7A"/>
<path d="M1101.81 378.88L1098.72 422.082C1098.56 424.327 1096.59 425.999 1094.32 425.839L1080.46 424.854C1078.21 424.694 1076.51 422.769 1076.66 420.525L1079.76 377.322C1079.91 375.1 1081.86 373.405 1084.13 373.565L1097.99 374.55C1100.24 374.711 1101.96 376.658 1101.81 378.88Z" fill="#FFD0A1"/>
<path d="M1082.39 425.014L1081.83 424.968L1085.72 373.68L1086.28 373.726L1082.39 425.014Z" fill="#0F214F"/>
<path d="M1101.81 378.88L1097.7 378.582L1097.99 374.527C1100.24 374.711 1101.96 376.658 1101.81 378.88Z" fill="#868586"/>
<path d="M1084.13 373.565L1083.85 377.62L1079.76 377.322C1079.91 375.1 1081.86 373.405 1084.13 373.565Z" fill="#868586"/>
<path d="M1098.69 422.082C1098.54 424.327 1096.57 425.999 1094.3 425.839L1094.58 421.784L1098.69 422.082Z" fill="#868586"/>
<path d="M1080.75 420.822L1080.46 424.877C1078.21 424.716 1076.51 422.792 1076.66 420.547L1080.75 420.822Z" fill="#868586"/>
<path d="M1094.65 373.062L1088.2 372.604C1088.18 372.604 1088.13 372.626 1088.13 372.649L1088.04 373.772C1088.04 373.795 1088.07 373.817 1088.09 373.84L1094.54 374.298C1094.56 374.298 1094.61 374.275 1094.61 374.253L1094.69 373.13C1094.69 373.107 1094.67 373.062 1094.65 373.062Z" fill="#0F214F"/>
<path d="M1132.83 395.419L1125.67 428.152C1125.12 430.397 1122.84 431.794 1120.57 431.29L1102.1 427.305C1099.82 426.824 1098.34 424.625 1098.76 422.334L1105.92 389.6C1106.43 387.287 1108.72 385.821 1111.04 386.325L1129.52 390.31C1131.86 390.837 1133.34 393.128 1132.83 395.419Z" fill="#742421"/>
<path d="M1111.07 386.348L1110.16 390.54L1105.94 389.623C1106.45 387.31 1108.75 385.844 1111.07 386.348Z" fill="#FAFF69"/>
<path d="M1132.83 395.419L1128.61 394.502L1129.52 390.31C1131.86 390.837 1133.34 393.128 1132.83 395.419Z" fill="#FAFF69"/>
<path d="M1103 423.273L1102.12 427.328C1099.84 426.846 1098.36 424.647 1098.78 422.357L1103 423.273Z" fill="#FAFF69"/>
<path d="M1125.67 428.152C1125.12 430.397 1122.84 431.794 1120.57 431.29L1121.45 427.236L1125.67 428.152Z" fill="#FAFF69"/>
<path d="M1107.53 428.496L1107 428.381L1115.97 387.401L1116.5 387.516L1107.53 428.496Z" fill="#0F214F"/>
<path d="M1123.88 389.119L1118.47 387.951C1118.42 387.951 1118.4 387.905 1118.4 387.859L1118.62 386.851C1118.62 386.806 1118.67 386.783 1118.71 386.783L1124.12 387.951C1124.17 387.951 1124.19 387.997 1124.19 388.042L1123.97 389.05C1123.97 389.096 1123.93 389.119 1123.88 389.119Z" fill="#FAFF69"/>
<path d="M1073.37 393.517L1074.83 418.738C1074.94 420.639 1073.48 422.265 1071.56 422.38L986.805 427.213C985.215 427.305 983.823 426.297 983.336 424.877C983.226 424.602 983.16 424.281 983.16 423.983L981.701 398.763C981.591 396.862 983.049 395.235 984.972 395.121L1069.73 390.287C1071.63 390.173 1073.26 391.639 1073.37 393.517Z" fill="#314123"/>
<g opacity="0.5">
<path opacity="0.5" d="M1074.54 413.561L1074.65 415.531L982.959 420.753L982.849 418.783L1074.54 413.561Z" fill="white"/>
<path opacity="0.5" d="M1074.48 412.667L1074.52 413.171L982.826 418.394L982.804 417.89L1074.48 412.667Z" fill="white"/>
<path opacity="0.5" d="M1074.85 418.829C1074.85 419.012 1074.85 419.173 1074.81 419.333L983.224 424.556C983.202 424.373 983.158 424.235 983.158 424.052L1074.85 418.829Z" fill="white"/>
<path opacity="0.5" d="M1074.7 416.447L1074.83 418.44L983.136 423.663L983.025 421.67L1074.7 416.447Z" fill="white"/>
</g>
<g opacity="0.5">
<path opacity="0.5" d="M1073.68 398.648L1073.79 400.618L982.097 405.841L981.987 403.871L1073.68 398.648Z" fill="white"/>
<path opacity="0.5" d="M1073.62 397.732L1073.66 398.259L981.965 403.482L981.943 402.978L1073.62 397.732Z" fill="white"/>
</g>
<g opacity="0.5">
<path opacity="0.5" d="M1073.37 393.425L981.678 398.648C981.678 398.465 981.678 398.305 981.722 398.144L1073.28 392.922C1073.33 393.082 1073.37 393.242 1073.37 393.425Z" fill="white"/>
<path opacity="0.5" d="M1073.17 392.532L981.811 397.755C981.943 397.114 982.297 396.541 982.761 396.129C982.938 395.922 983.114 395.785 983.313 395.67L1071.41 390.631C1071.65 390.723 1071.89 390.883 1072.09 391.089C1072.25 391.181 1072.42 391.341 1072.51 391.501C1072.78 391.753 1072.95 392.051 1073.06 392.349C1073.11 392.395 1073.13 392.463 1073.17 392.532Z" fill="white"/>
</g>
<g opacity="0.5">
<path opacity="0.5" d="M985.655 395.098L987.511 427.19L986.826 427.236C986.362 427.259 985.92 427.19 985.5 427.053L983.666 395.464C984.064 395.281 984.506 395.166 984.97 395.144L985.655 395.098Z" fill="white"/>
<path opacity="0.5" d="M986.538 395.052L988.394 427.144L987.886 427.167L986.03 395.075L986.538 395.052Z" fill="white"/>
<path opacity="0.5" d="M982.76 396.129L984.528 426.526C983.975 426.114 983.556 425.541 983.335 424.899C983.313 424.785 983.246 424.693 983.224 424.579C983.202 424.396 983.158 424.258 983.158 424.075L981.678 398.671C981.678 398.488 981.678 398.328 981.722 398.167C981.744 398.007 981.744 397.87 981.81 397.755C981.943 397.091 982.296 396.518 982.76 396.129Z" fill="white"/>
</g>
<g opacity="0.5">
<path opacity="0.5" d="M1005.25 393.976L1007.24 393.861L1009.1 425.953L1007.11 426.068L1005.25 393.976Z" fill="white"/>
<path opacity="0.5" d="M1007.64 393.838L1008.15 393.815L1010 425.907L1009.5 425.93L1007.64 393.838Z" fill="white"/>
<path opacity="0.5" d="M1001.43 394.204L1001.94 394.159L1003.79 426.274L1003.29 426.297L1001.43 394.204Z" fill="white"/>
<path opacity="0.5" d="M1002.34 394.136L1004.33 394.021L1006.2 426.136L1004.19 426.251L1002.34 394.136Z" fill="white"/>
</g>
<path opacity="0.5" d="M993.896 394.617H994.051L995.907 426.709L995.752 426.732L993.896 394.617Z" fill="white"/>
<path opacity="0.5" d="M1015.51 393.403L1015.66 393.38L1017.52 425.472L1017.36 425.495L1015.51 393.403Z" fill="white"/>
<g opacity="0.5">
<path opacity="0.5" d="M1026.86 392.739L1028.83 392.625L1030.68 424.717L1028.72 424.832L1026.86 392.739Z" fill="white"/>
<path opacity="0.5" d="M1029.23 392.601L1029.73 392.578L1031.61 424.67L1031.1 424.693L1029.23 392.601Z" fill="white"/>
<path opacity="0.5" d="M1023.02 392.967L1023.53 392.945L1025.38 425.037L1024.87 425.06L1023.02 392.967Z" fill="white"/>
<path opacity="0.5" d="M1023.92 392.921L1025.93 392.807L1027.79 424.899L1025.78 425.014L1023.92 392.921Z" fill="white"/>
</g>
<path opacity="0.5" d="M1037.11 392.166L1037.27 392.143L1039.12 424.235L1038.97 424.258L1037.11 392.166Z" fill="white"/>
<g opacity="0.5">
<path opacity="0.5" d="M1048.45 391.502L1050.46 391.388L1052.32 423.503L1050.3 423.618L1048.45 391.502Z" fill="white"/>
<path opacity="0.5" d="M1050.84 391.364L1051.34 391.341L1053.2 423.433L1052.69 423.479L1050.84 391.364Z" fill="white"/>
<path opacity="0.5" d="M1044.65 391.731L1045.16 391.708L1047.01 423.8L1046.5 423.823L1044.65 391.731Z" fill="white"/>
<path opacity="0.5" d="M1045.55 391.685L1047.52 391.57L1049.38 423.662L1047.41 423.777L1045.55 391.685Z" fill="white"/>
</g>
<path opacity="0.5" d="M1058.7 390.929L1058.86 390.906L1060.73 423.021H1060.58L1058.7 390.929Z" fill="white"/>
<g opacity="0.5">
<path opacity="0.5" d="M1071.41 390.654C1071.65 390.745 1071.89 390.906 1072.09 391.112L1073.84 421.349C1073.33 421.875 1072.67 422.265 1071.89 422.356L1070.04 390.31C1070.54 390.31 1070.99 390.424 1071.41 390.654Z" fill="white"/>
<path opacity="0.5" d="M1072.53 391.501C1072.8 391.753 1072.97 392.051 1073.09 392.349L1074.68 419.951C1074.59 420.272 1074.45 420.593 1074.21 420.868L1072.53 391.501Z" fill="white"/>
<path opacity="0.5" d="M1066.24 390.493L1066.74 390.47L1068.6 422.563L1068.09 422.586L1066.24 390.493Z" fill="white"/>
<path opacity="0.5" d="M1067.14 390.448L1069.13 390.334L1071.01 422.426L1069 422.54L1067.14 390.448Z" fill="white"/>
</g>
<path d="M987.732 394.96L988.085 401.168L981.854 401.535L981.7 398.763C981.589 396.862 983.047 395.235 984.97 395.121L987.732 394.96Z" fill="#BE7F30"/>
<path d="M1073.37 393.517L1073.53 396.289L1067.3 396.656L1066.94 390.448L1069.73 390.287C1071.63 390.173 1073.26 391.639 1073.37 393.517Z" fill="#BE7F30"/>
<path d="M989.367 420.868L989.72 427.053L986.803 427.213C985.213 427.305 983.821 426.297 983.335 424.877L983.114 421.211L989.367 420.868Z" fill="#BE7F30"/>
<path d="M1074.68 415.989L1074.83 418.738C1074.94 420.639 1073.48 422.265 1071.56 422.38L1068.91 422.54L1068.56 416.355L1074.68 415.989Z" fill="#BE7F30"/>
<path d="M997.851 412.759L997.586 408.223C997.586 408.132 997.652 408.063 997.719 408.063L1004.81 407.651C1004.9 407.651 1004.97 407.719 1004.97 407.788L1005.23 412.324C1005.23 412.415 1005.16 412.484 1005.1 412.484L998.006 412.896C997.917 412.896 997.851 412.851 997.851 412.759Z" fill="#D9F0F8"/>
<path d="M998.691 411.339L998.602 409.552L1005.05 409.185L1005.14 410.972L998.691 411.339Z" fill="#0F214F"/>
<path d="M998.779 411.224L998.691 409.667L1005.05 409.3L1005.14 410.858L998.779 411.224Z" fill="#CED9DF"/>
<path d="M999.994 410.491V410.239L1000.79 410.193L1000.81 410.445L999.994 410.491Z" fill="#0F214F"/>
<path d="M1059.28 409.254L1059.01 404.719C1059.01 404.627 1058.94 404.581 1058.86 404.581L1051.76 404.994C1051.67 404.994 1051.61 405.062 1051.63 405.154L1051.9 409.689C1051.9 409.781 1051.96 409.827 1052.05 409.827L1059.14 409.414C1059.23 409.414 1059.28 409.346 1059.28 409.254Z" fill="#D9F0F8"/>
<path d="M1058.26 407.925L1058.17 406.162L1051.72 406.528L1051.81 408.292L1058.26 407.925Z" fill="#0F214F"/>
<path d="M1058.17 407.834L1058.08 406.276L1051.72 406.643L1051.81 408.178L1058.17 407.834Z" fill="#CED9DF"/>
<path d="M1056.87 407.261V406.986L1056.05 407.032L1056.07 407.307L1056.87 407.261Z" fill="#0F214F"/>
<path d="M1037.38 411.384L1019.17 412.415L1019.06 410.491L1037.27 409.46L1037.38 411.384Z" fill="#9D7028"/>
<path d="M1043.23 411.614L1037.56 411.384L1037.45 409.46L1043.08 408.659L1043.23 411.614Z" fill="#462A0F"/>
<path d="M1013.38 413.309L1019 412.438L1018.89 410.514L1013.23 410.354L1013.38 413.309Z" fill="#462A0F"/>
<path d="M1037.56 411.384H1037.4L1037.27 409.46L1037.45 409.437L1037.56 411.384Z" fill="#7A571F"/>
<path d="M1019.17 412.438H1019L1018.89 410.514L1019.06 410.491L1019.17 412.438Z" fill="#7A571F"/>
<path d="M1073.84 401.649L982.164 406.895L982.119 406.345L1073.81 401.099L1073.84 401.649Z" fill="#0F214F"/>
<path d="M1064.84 371.023L1065.82 389.119C1065.86 389.806 1065.31 390.402 1064.62 390.448L998.05 393.952C997.343 393.998 996.769 393.448 996.724 392.761L995.752 374.665C995.708 373.978 996.238 373.382 996.945 373.337L1063.52 369.832C1064.22 369.786 1064.82 370.313 1064.84 371.023Z" fill="#462A0F"/>
<path d="M999.774 373.176L999.818 374.001C999.884 375.421 998.492 376.658 996.68 376.749C996.393 376.772 996.128 376.749 995.863 376.704L995.752 374.665C995.708 373.978 996.238 373.382 996.945 373.337L999.774 373.176Z" fill="#704318"/>
<path d="M1064.84 371.023L1064.95 373.061C1064.76 373.107 1064.53 373.13 1064.31 373.153C1062.5 373.245 1060.95 372.168 1060.89 370.748L1060.84 369.969L1063.5 369.832C1064.22 369.786 1064.82 370.313 1064.84 371.023Z" fill="#704318"/>
<path d="M1065.24 378.124L996.128 381.766L996.084 380.964L1065.2 377.345L1065.24 378.124Z" fill="#0F214F"/>
<path d="M1026.6 380.666L1022.69 380.873C1022.18 380.896 1021.78 381.331 1021.8 381.858C1021.82 382.362 1022.27 382.774 1022.8 382.728L1026.71 382.522C1027.22 382.499 1027.61 382.064 1027.59 381.537C1027.55 381.033 1027.11 380.644 1026.6 380.666Z" fill="#0F214F"/>
<path d="M1038.09 380.071L1034.18 380.277C1033.67 380.3 1033.27 380.735 1033.29 381.262C1033.31 381.766 1033.76 382.179 1034.29 382.133L1038.2 381.927C1038.7 381.904 1039.1 381.468 1039.08 380.941C1039.06 380.437 1038.62 380.025 1038.09 380.071Z" fill="#0F214F"/>
<path d="M1034.09 385.133L1027.13 385.5C1025.34 385.591 1024.08 384.629 1023.99 383.072L1023.92 381.697L1025.54 381.606L1025.6 382.98C1025.65 383.828 1026.53 383.919 1027.04 383.896L1034 383.53C1034.51 383.507 1035.39 383.324 1035.35 382.476L1035.28 381.102L1036.89 381.01L1036.96 382.384C1037.03 383.942 1035.9 385.042 1034.09 385.133Z" fill="#0F214F"/>
<path d="M1050.9 376.475L1048.45 376.612C1048.21 376.635 1048.01 376.841 1048.03 377.07L1048.25 381.216C1048.27 381.468 1048.47 381.651 1048.71 381.628L1051.17 381.491C1051.41 381.468 1051.61 381.262 1051.59 381.033L1051.37 376.887C1051.37 376.635 1051.14 376.452 1050.9 376.475Z" fill="#D9F0F8"/>
<path d="M1050.53 380.895L1049.31 380.964L1049.07 376.566L1050.28 376.497L1050.53 380.895Z" fill="#0F214F"/>
<path d="M1050.44 380.849L1049.38 380.895L1049.13 376.566L1050.22 376.497L1050.44 380.849Z" fill="#CED9DF"/>
<path d="M1049.95 380.002L1049.77 380.025L1049.75 379.475L1049.93 379.453L1049.95 380.002Z" fill="#0F214F"/>
<path d="M1011.26 378.559L1008.81 378.697C1008.57 378.719 1008.37 378.926 1008.39 379.155L1008.61 383.301C1008.63 383.553 1008.83 383.736 1009.08 383.713L1011.53 383.576C1011.77 383.553 1011.97 383.347 1011.95 383.118L1011.73 378.971C1011.73 378.742 1011.51 378.536 1011.26 378.559Z" fill="#D9F0F8"/>
<path d="M1010.89 383.002L1009.67 383.048L1009.43 378.65L1010.64 378.581L1010.89 383.002Z" fill="#0F214F"/>
<path d="M1010.8 382.935L1009.74 382.981L1009.5 378.652L1010.58 378.606L1010.8 382.935Z" fill="#CED9DF"/>
<path d="M1010.31 382.11H1010.14L1010.11 381.56L1010.29 381.537L1010.31 382.11Z" fill="#0F214F"/>
<path d="M1019.17 392.83L1016.23 392.99L1015.13 372.374L1018.07 372.214L1019.17 392.83Z" fill="#0F214F"/>
<path d="M1045.31 391.455L1042.37 391.593L1041.27 371L1044.21 370.839L1045.31 391.455Z" fill="#0F214F"/>
</svg>
