<svg width="375" height="321" viewBox="0 0 375 321" fill="none" xmlns="http://www.w3.org/2000/svg">
<path d="M41.8872 295.398C-14.7767 303.281 -18.5115 273.214 -13.2959 257.196C-3.09746 238.181 -0.163677 272.926 55.9973 257.196C112.158 241.465 163.569 286.409 191.091 257.196C218.613 227.982 352.17 217.437 374.802 242.156C397.434 266.876 381.368 259.961 336.802 307.153C292.237 354.344 203.944 262.9 161.893 297.818C119.842 332.737 112.717 285.545 41.8872 295.398Z" fill="#F8FBFF"/>
<path d="M234.567 137.913C261.147 112.553 261.147 71.4374 234.567 46.0777C207.988 20.7181 164.895 20.7181 138.316 46.0778C111.736 71.4374 111.736 112.553 138.316 137.913C164.895 163.273 207.988 163.273 234.567 137.913Z" fill="#FBB667"/>
<path opacity="0.8" d="M105.916 97.5694C103.889 94.0613 99.9829 91.6898 95.4929 91.6898C93.7862 91.6898 92.1597 92.0395 90.6936 92.6515C90.0178 88.6297 86.3639 85.5588 81.954 85.5588C80.6368 85.5588 79.3997 85.832 78.2772 86.3238C76.9943 83.1873 73.81 80.9578 70.0645 80.9578C65.3225 80.9578 61.4509 84.5315 61.2677 89.0122C59.6412 89.668 58.2094 90.6625 57.0411 91.8974C56.182 89.9193 54.1317 88.5314 51.7492 88.5314C49.2636 88.5314 47.1561 90.0395 46.3543 92.1488C45.037 91.4821 43.5365 91.0996 41.9329 91.0996C37.6376 91.0996 34.0295 93.8208 32.8612 97.5584H105.916V97.5694Z" fill="#F1F2F2"/>
<path d="M296.011 213.5C278.864 206.091 259.701 203.839 240.881 204.167C202.349 204.845 164.562 215.937 126.03 215.741C111.987 215.664 97.7494 214.101 84.0043 216.91C66.5481 220.473 44.3498 235.871 35.4041 250.614H334.943C328.14 233.871 313.146 220.899 296.011 213.5Z" fill="#FFEDC5"/>
<path d="M163.577 119.918C163.577 119.918 164.069 109.93 150.313 105.099C150.313 105.099 151.286 104.87 153.978 105.405C153.978 105.405 129.833 91.9738 114.885 116.356C114.885 116.356 119.615 94.3344 149.774 93.9956C149.774 93.9956 144.46 85.2527 127.61 88.6952C127.61 88.6952 128.584 87.351 131.367 86.7609C131.367 86.7609 112.399 87.4603 112.411 114.399C111.197 87.045 85.0351 90.8482 85.0351 90.8482C87.4061 91.329 88.5057 93.0995 88.5057 93.0995C71.3244 91.3728 66.8687 103.274 66.8687 103.274C98.1387 92.8044 110.303 116.006 110.303 116.006C95.0461 98.3452 77.6013 107.044 77.6013 107.044C80.0754 106.421 81.3125 107.438 81.3125 107.438C64.1884 112.246 61.4967 129.087 61.4967 129.087C84.6342 108.039 109.994 119.514 109.994 119.514C84.428 115.438 74.2338 134.836 74.2338 134.836C76.3528 132.738 78.8155 132.377 78.8155 132.377C64.681 150.967 83.8439 166.147 83.8439 166.147C75.677 132.41 109.994 122.388 109.994 122.388C109.994 122.388 100.876 144.934 116.798 186.091C125.709 209.129 129.019 222.986 129.019 233.128L146.052 230.068C146.052 230.068 126.786 192.878 120.257 179.501C108.47 155.36 110.246 130.093 113.006 122.399C113.006 122.399 147.483 124.159 146.728 161.677C146.728 161.677 159.671 149.382 151.962 135.131C151.962 135.131 154.528 135.273 156.063 138.311C156.063 138.311 153.463 113.766 114.392 119.907C114.381 119.918 140.21 104.564 163.577 119.918Z" fill="#0F214F"/>
<path d="M224.937 134.246C224.937 134.246 224.548 126.312 235.463 122.476C235.463 122.476 234.696 122.301 232.554 122.727C232.554 122.727 251.728 112.072 263.583 131.415C263.583 131.415 259.826 113.929 235.887 113.667C235.887 113.667 240.102 106.727 253.481 109.46C253.481 109.46 252.713 108.389 250.503 107.919C250.503 107.919 265.554 108.476 265.554 129.863C266.516 108.148 287.294 111.164 287.294 111.164C285.404 111.547 284.545 112.957 284.545 112.957C298.175 111.591 301.726 121.033 301.726 121.033C276.905 112.727 267.249 131.142 267.249 131.142C279.356 117.121 293.204 124.027 293.204 124.027C291.234 123.525 290.26 124.344 290.26 124.344C303.856 128.169 305.987 141.535 305.987 141.535C287.614 124.825 267.489 133.94 267.489 133.94C287.786 130.705 295.873 146.103 295.873 146.103C294.189 144.442 292.242 144.147 292.242 144.147C303.467 158.912 288.244 170.955 288.244 170.955C294.727 144.18 267.489 136.213 267.489 136.213C267.489 136.213 279.287 160.529 265.462 191.14C257.375 209.041 258.234 218.68 254.317 231.926L238.842 229.412C238.842 229.412 250.342 208.571 260.72 188.911C274.728 162.387 267.283 142.333 265.095 136.224C265.095 136.224 237.72 137.623 238.327 167.403C238.327 167.403 228.053 157.644 234.169 146.333C234.169 146.333 232.13 146.453 230.916 148.857C230.916 148.857 232.978 129.372 263.996 134.246C263.996 134.246 243.493 122.06 224.937 134.246Z" fill="#0F214F"/>
<path d="M40.4324 58.3901C40.4324 58.3901 35.4613 47.2757 22.1744 58.3464C22.1744 58.3464 26.8706 47.9861 37.5459 51.9641C38.5997 41.7239 51.3941 41.7239 51.3941 41.7239C47.2706 43.2977 44.1092 45.5708 42.4827 47.9423C39.0121 52.9586 40.4324 58.3901 40.4324 58.3901Z" fill="#0F214F"/>
<path d="M123.224 14.8722C123.224 14.8722 123.235 -0.00161901 102.549 2.79611C102.549 2.79611 115.114 -5.29107 123.739 6.04192C132.295 -4.31843 146.086 4.10755 146.086 4.10755C140.497 3.09118 135.525 3.64855 131.963 4.94905C123.499 8.03093 123.224 14.8722 123.224 14.8722Z" fill="#0F214F"/>
<path d="M188.891 60.4884C188.891 60.4884 189.074 52.74 178.25 55.8437C178.25 55.8437 183.862 50.9805 188.994 56.0077C192.453 50.292 199.921 53.5268 199.921 53.5268C197.069 53.4066 194.606 53.9312 192.991 54.9039C189.566 56.9584 188.891 60.4884 188.891 60.4884Z" fill="#0F214F"/>
<path d="M245.864 15.4952C245.864 15.4952 253.744 6.26052 237.537 0.271623C237.537 0.271623 249.163 -0.569881 250.411 10.1402C260.262 6.32609 266.126 16.9706 266.126 16.9706C262.793 14.2603 259.277 12.6756 256.356 12.4024C250.182 11.8232 245.864 15.4952 245.864 15.4952Z" fill="#0F214F"/>
<path d="M331.816 89.2634C331.816 89.2634 331.438 82.3894 323.214 83.668C323.214 83.668 328.449 80.9577 331.278 83.4276C331.965 84.0287 332.446 84.7718 332.698 85.657C335.527 80.7391 342.572 84.7499 342.572 84.7499C334.875 83.1325 331.816 89.2634 331.816 89.2634Z" fill="#0F214F"/>
<path d="M343.82 23.2764C343.82 23.2764 351.621 13.233 338.563 5.96545C338.563 5.96545 349.181 7.94354 350.143 14.5226C350.372 16.1291 350.143 17.6919 349.444 19.211C359.364 15.4406 364.358 28.8282 364.358 28.8282C355.515 18.0635 343.82 23.2764 343.82 23.2764Z" fill="#0F214F"/>
<path opacity="0.8" d="M269.437 73.865C269.139 71.5919 267.111 69.8323 264.649 69.8323C264.649 66.2805 261.625 63.3954 257.902 63.3954C255.898 63.3954 254.099 64.2259 252.862 65.5483C252.313 65.4172 251.751 65.3407 251.156 65.3407C251.087 65.3407 251.018 65.3407 250.95 65.3407C250.125 62.6413 247.502 60.6632 244.409 60.6632C240.641 60.6632 237.594 63.5702 237.594 67.1658C237.594 67.2204 237.594 67.286 237.594 67.3406C237.17 67.2313 236.723 67.1658 236.265 67.1658C235.67 67.1658 235.108 67.2641 234.581 67.4499C233.734 66.1057 232.199 65.2095 230.435 65.2095C228.774 65.2095 227.308 66.0073 226.437 67.2313C226.163 67.1876 225.888 67.1658 225.601 67.1658C222.933 67.1658 220.768 69.2313 220.768 71.7776C220.768 71.8541 220.768 71.9197 220.768 71.9962C220.138 71.8104 219.473 71.7121 218.775 71.7121C216.759 71.7121 214.96 72.5426 213.712 73.865H269.437Z" fill="#F1F2F2"/>
<path opacity="0.8" d="M39.7681 23.0578C39.0809 21.8666 37.7522 21.0579 36.2173 21.0579C35.6331 21.0579 35.0833 21.1781 34.5793 21.3857C34.3503 20.0197 33.1018 18.9705 31.6013 18.9705C31.1545 18.9705 30.7307 19.0689 30.3413 19.2328C29.906 18.1618 28.8179 17.4077 27.5465 17.4077C25.9314 17.4077 24.6142 18.6317 24.5455 20.1508C23.9956 20.3694 23.5031 20.7082 23.1022 21.1344C22.8044 20.4568 22.1057 19.9869 21.3039 19.9869C20.4563 19.9869 19.7347 20.5005 19.4712 21.2218C19.0245 20.9923 18.5091 20.8612 17.9593 20.8612C16.4931 20.8612 15.2675 21.7901 14.8666 23.0687H39.7681V23.0578Z" fill="#F1F2F2"/>
<path opacity="0.8" d="M117.783 56.5541C118.081 55.2864 119.26 54.3465 120.681 54.3465C121.517 54.3465 122.284 54.6853 122.823 55.2208C123.739 54.4667 124.873 53.9749 126.133 53.8328C126.224 51.4941 128.24 49.6253 130.726 49.6253C131.173 49.6253 131.608 49.6909 132.009 49.8002C132.73 48.292 134.323 47.2429 136.167 47.2429C138.687 47.2429 140.737 49.1991 140.737 51.6034C140.737 51.9422 140.691 52.2591 140.622 52.576C141.436 52.6963 142.192 52.9585 142.856 53.352C143.646 52.8165 144.62 52.5105 145.662 52.5105C147.483 52.5105 149.064 53.4613 149.912 54.8601C150.393 54.5432 150.977 54.3574 151.596 54.3574C153.016 54.3574 154.196 55.3082 154.493 56.565H117.783V56.5541Z" fill="#F1F2F2"/>
<path d="M181.777 284.788C240.578 284.788 288.244 284.088 288.244 283.225C288.244 282.362 240.578 281.662 181.777 281.662C122.977 281.662 75.3105 282.362 75.3105 283.225C75.3105 284.088 122.977 284.788 181.777 284.788Z" fill="#4B4B4B"/>
<path d="M137.988 224.56C137.988 224.56 137.793 225.73 137.988 226.691C138.148 227.511 139.076 228.986 139.076 228.986C139.145 229.128 139.363 229.085 139.363 228.932C139.363 228.025 139.214 226.254 138.274 224.506C138.206 224.374 137.988 224.418 137.988 224.56Z" fill="#808285"/>
<path d="M138 230.057C137.931 229.926 137.748 229.904 137.644 230.003L137.633 226.975L137.977 226.997L138 230.057Z" fill="#808285"/>
<path d="M138.309 230.8C137.736 231.063 137.347 230.8 137.347 230.8L137.599 230.079C137.61 230.046 137.622 230.025 137.644 230.003C137.748 229.904 137.931 229.926 137.999 230.057C137.999 230.057 137.999 230.068 138.011 230.068L138.309 230.8Z" fill="#6D6E71"/>
<path d="M138.034 226.374L137.438 226.68C137.289 226.757 137.335 226.964 137.518 226.975L138.194 227.008C138.183 227.019 138.343 226.768 138.034 226.374Z" fill="#6D6E71"/>
<path d="M273.365 271.051H267.26L273.469 269.018L273.365 271.051Z" fill="#0F214F"/>
<path d="M94.4162 266.329L91.3694 259.608C91.0487 258.887 89.9147 258.931 89.6627 259.674C88.9525 261.717 88.0018 264.963 87.7498 268.133C87.5322 270.832 89.846 273.149 92.8126 273.149C93.0417 273.149 93.2135 272.985 93.225 272.777L93.2479 270.428L94.4162 266.329Z" fill="#0F214F"/>
<path d="M104.473 268.165L99.9028 272.821C99.4218 273.313 98.7116 273.575 97.99 273.542L95.3784 273.411C93.4083 273.313 91.8734 271.826 91.8734 270.034V268.165L93.0761 266.788H97.3829L104.462 265.466V268.165H104.473Z" fill="#0F214F"/>
<path d="M108.768 263.63C108.768 272.089 116.271 278.93 125.526 278.93C131.482 278.93 136.705 276.089 139.683 271.816C138.973 271.531 138.4 270.996 138.114 270.307C137.083 267.859 135.17 263.532 133.865 261.98C131.997 259.772 126.557 254.822 118.184 254.953C115.836 254.985 113.407 255.149 111.048 255.914C109.593 258.166 108.768 260.81 108.768 263.63Z" fill="#0F214F"/>
<path d="M102.411 268.286C102.411 276.744 109.914 283.597 119.169 283.597C128.424 283.597 135.926 276.744 135.926 268.286C135.926 259.827 128.424 252.986 119.169 252.986C113.911 252.986 109.215 255.204 106.145 258.668C104.175 260.887 102.881 263.619 102.514 266.603C102.446 267.149 102.411 267.717 102.411 268.286Z" fill="#0F214F"/>
<path d="M119.169 281.64C127.241 281.64 133.784 275.661 133.784 268.286C133.784 260.91 127.241 254.931 119.169 254.931C111.097 254.931 104.553 260.91 104.553 268.286C104.553 275.661 111.097 281.64 119.169 281.64Z" fill="#E6E7E8"/>
<path d="M119.169 278.788C125.52 278.788 130.669 274.086 130.669 268.286C130.669 262.485 125.52 257.783 119.169 257.783C112.817 257.783 107.669 262.485 107.669 268.286C107.669 274.086 112.817 278.788 119.169 278.788Z" fill="#797471"/>
<path d="M119.169 277.542C124.767 277.542 129.306 273.398 129.306 268.286C129.306 263.173 124.767 259.029 119.169 259.029C113.57 259.029 109.032 263.173 109.032 268.286C109.032 273.398 113.57 277.542 119.169 277.542Z" fill="#605C57"/>
<path d="M111.586 268.286C111.586 272.111 114.988 275.214 119.169 275.214C123.361 275.214 126.751 272.111 126.751 268.286C126.751 267.827 126.706 267.379 126.614 266.952C125.927 263.761 122.857 261.357 119.169 261.357C115.48 261.357 112.411 263.761 111.724 266.952C111.632 267.379 111.586 267.827 111.586 268.286Z" fill="#757475"/>
<path d="M111.724 266.952C113.774 268.439 116.351 269.324 119.169 269.324C121.986 269.324 124.564 268.439 126.614 266.952C125.927 263.761 122.857 261.357 119.169 261.357C115.48 261.357 112.411 263.761 111.724 266.952Z" fill="white"/>
<path d="M108.012 268.286C108.012 262.668 113.018 258.089 119.169 258.089C125.32 258.089 130.325 262.657 130.325 268.286C130.325 273.903 125.32 278.482 119.169 278.482C113.018 278.482 108.012 273.903 108.012 268.286ZM108.264 268.286C108.264 273.783 113.155 278.242 119.169 278.242C125.182 278.242 130.073 273.772 130.073 268.286C130.073 262.789 125.182 258.33 119.169 258.33C113.155 258.33 108.264 262.799 108.264 268.286Z" fill="#605C57"/>
<path d="M107.543 268.286C107.543 262.428 112.754 257.663 119.169 257.663C125.583 257.663 130.795 262.428 130.795 268.286C130.795 274.143 125.583 278.908 119.169 278.908C112.766 278.908 107.543 274.143 107.543 268.286ZM107.806 268.286C107.806 274.012 112.903 278.668 119.18 278.668C125.446 278.668 130.554 274.012 130.554 268.286C130.554 262.559 125.457 257.903 119.18 257.903C112.903 257.903 107.806 262.559 107.806 268.286Z" fill="#605C57"/>
<path d="M118.104 260.351H120.52C120.578 260.351 120.623 260.308 120.623 260.253V259.674C120.623 259.619 120.578 259.576 120.52 259.576H118.104C118.046 259.576 118 259.619 118 259.674V260.253C118 260.308 118.046 260.351 118.104 260.351Z" fill="#0F214F"/>
<path d="M112.044 263.652L113.613 262.067C113.671 262.013 113.659 261.925 113.602 261.881L113.178 261.532C113.121 261.488 113.029 261.488 112.972 261.543L111.403 263.127C111.345 263.182 111.357 263.269 111.414 263.313L111.838 263.663C111.895 263.717 111.987 263.707 112.044 263.652Z" fill="#0F214F"/>
<path d="M110.486 269.258V267.062C110.486 267.007 110.441 266.963 110.383 266.963H109.73C109.673 266.963 109.627 267.007 109.627 267.062V269.258C109.627 269.313 109.673 269.357 109.73 269.357H110.383C110.441 269.357 110.486 269.313 110.486 269.258Z" fill="#0F214F"/>
<path d="M113.762 274.559L112.113 273.051C112.056 272.996 111.964 272.996 111.907 273.051L111.506 273.422C111.449 273.477 111.449 273.553 111.506 273.608L113.155 275.116C113.213 275.171 113.304 275.171 113.361 275.116L113.762 274.745C113.82 274.701 113.82 274.613 113.762 274.559Z" fill="#0F214F"/>
<path d="M120.245 276.22H117.829C117.771 276.22 117.725 276.264 117.725 276.318V276.897C117.725 276.952 117.771 276.996 117.829 276.996H120.245C120.303 276.996 120.348 276.952 120.348 276.897V276.318C120.348 276.264 120.303 276.22 120.245 276.22Z" fill="#0F214F"/>
<path d="M126.041 273.236L124.392 274.744C124.334 274.799 124.334 274.876 124.392 274.93L124.793 275.302C124.85 275.356 124.942 275.356 124.999 275.302L126.648 273.794C126.706 273.739 126.706 273.662 126.648 273.608L126.247 273.236C126.19 273.182 126.098 273.182 126.041 273.236Z" fill="#0F214F"/>
<path d="M127.862 267.313V269.51C127.862 269.564 127.908 269.608 127.966 269.608H128.618C128.676 269.608 128.722 269.564 128.722 269.51V267.313C128.722 267.258 128.676 267.215 128.618 267.215H127.966C127.908 267.215 127.862 267.258 127.862 267.313Z" fill="#0F214F"/>
<path d="M124.587 262.013L126.236 263.521C126.293 263.575 126.385 263.575 126.442 263.521L126.843 263.149C126.9 263.095 126.9 263.018 126.843 262.963L125.194 261.455C125.136 261.401 125.045 261.401 124.987 261.455L124.587 261.827C124.529 261.871 124.529 261.958 124.587 262.013Z" fill="#0F214F"/>
<path d="M119.169 270.581C120.554 270.581 121.677 269.553 121.677 268.286C121.677 267.018 120.554 265.991 119.169 265.991C117.783 265.991 116.66 267.018 116.66 268.286C116.66 269.553 117.783 270.581 119.169 270.581Z" fill="#E6E7E8"/>
<path d="M119.169 270.395C120.44 270.395 121.471 269.45 121.471 268.285C121.471 267.121 120.44 266.176 119.169 266.176C117.897 266.176 116.866 267.121 116.866 268.285C116.866 269.45 117.897 270.395 119.169 270.395Z" fill="#6D6E71"/>
<path d="M101.094 265.936L102.514 266.592C102.881 263.597 104.175 260.876 106.145 258.657C104.278 260.286 102.56 262.603 101.094 265.936Z" fill="#0F214F"/>
<path d="M221.34 272.122C224.318 276.351 229.519 279.149 235.441 279.149C244.696 279.149 252.198 272.296 252.198 263.838C252.198 260.198 250.801 256.854 248.475 254.22C246.425 253.619 244.054 253.281 241.328 253.292C237.663 253.302 227.617 255.554 223.23 270.865C223.15 271.149 222.99 271.4 222.772 271.608C222.44 271.925 221.97 272.111 221.466 272.111H221.34V272.122Z" fill="#0F214F"/>
<path d="M222.784 271.619L226.128 272.734H257.902C259.723 272.941 262.163 272.734 262.163 272.734C262.163 272.734 262.037 267.87 259.391 263.018C256.734 258.144 251.522 253.27 241.339 253.303C237.674 253.313 227.629 255.565 223.242 270.876C223.15 271.16 223.001 271.411 222.784 271.619Z" fill="#0F214F"/>
<path d="M225.201 268.504C225.201 276.963 232.703 283.815 241.958 283.815C251.213 283.815 258.716 276.963 258.716 268.504C258.716 260.045 251.213 253.204 241.958 253.204C236.701 253.204 232.004 255.423 228.935 258.887C226.964 261.106 225.67 263.838 225.304 266.821C225.235 267.379 225.201 267.936 225.201 268.504Z" fill="#0F214F"/>
<path d="M241.958 281.859C250.03 281.859 256.574 275.88 256.574 268.504C256.574 261.129 250.03 255.149 241.958 255.149C233.886 255.149 227.343 261.129 227.343 268.504C227.343 275.88 233.886 281.859 241.958 281.859Z" fill="#E6E7E8"/>
<path d="M241.958 279.007C248.309 279.007 253.458 274.305 253.458 268.504C253.458 262.704 248.309 258.002 241.958 258.002C235.607 258.002 230.458 262.704 230.458 268.504C230.458 274.305 235.607 279.007 241.958 279.007Z" fill="#797471"/>
<path d="M241.958 277.761C247.556 277.761 252.095 273.617 252.095 268.504C252.095 263.392 247.556 259.248 241.958 259.248C236.359 259.248 231.821 263.392 231.821 268.504C231.821 273.617 236.359 277.761 241.958 277.761Z" fill="#605C57"/>
<path d="M234.364 268.504C234.364 272.329 237.766 275.433 241.947 275.433C246.139 275.433 249.529 272.329 249.529 268.504C249.529 268.045 249.483 267.597 249.392 267.171C248.704 263.98 245.635 261.575 241.947 261.575C238.258 261.575 235.189 263.98 234.501 267.171C234.421 267.608 234.364 268.045 234.364 268.504Z" fill="#757475"/>
<path d="M234.513 267.171C236.563 268.657 239.14 269.542 241.958 269.542C244.776 269.542 247.353 268.657 249.403 267.171C248.716 263.98 245.646 261.575 241.958 261.575C238.27 261.575 235.189 263.98 234.513 267.171Z" fill="white"/>
<path d="M230.802 268.504C230.802 262.887 235.807 258.308 241.958 258.308C248.109 258.308 253.114 262.876 253.114 268.504C253.114 274.122 248.109 278.701 241.958 278.701C235.807 278.701 230.802 274.132 230.802 268.504ZM231.054 268.504C231.054 274.001 235.945 278.46 241.958 278.46C247.971 278.46 252.862 273.99 252.862 268.504C252.862 263.018 247.971 258.548 241.958 258.548C235.945 258.548 231.054 263.018 231.054 268.504Z" fill="#605C57"/>
<path d="M230.332 268.504C230.332 262.647 235.544 257.882 241.958 257.882C248.372 257.882 253.584 262.647 253.584 268.504C253.584 274.362 248.372 279.127 241.958 279.127C235.544 279.127 230.332 274.362 230.332 268.504ZM230.584 268.504C230.584 274.231 235.681 278.887 241.958 278.887C248.223 278.887 253.332 274.231 253.332 268.504C253.332 262.778 248.235 258.122 241.958 258.122C235.681 258.122 230.584 262.778 230.584 268.504Z" fill="#605C57"/>
<path d="M240.881 260.57H243.298C243.355 260.57 243.401 260.526 243.401 260.472V259.892C243.401 259.838 243.355 259.794 243.298 259.794H240.881C240.824 259.794 240.778 259.838 240.778 259.892V260.472C240.778 260.526 240.824 260.57 240.881 260.57Z" fill="#0F214F"/>
<path d="M234.822 263.881L236.391 262.297C236.449 262.242 236.437 262.155 236.38 262.111L235.956 261.761C235.899 261.718 235.807 261.718 235.75 261.772L234.181 263.357C234.123 263.411 234.135 263.499 234.192 263.543L234.616 263.892C234.685 263.936 234.776 263.936 234.822 263.881Z" fill="#0F214F"/>
<path d="M233.264 269.477V267.28C233.264 267.226 233.218 267.182 233.161 267.182H232.508C232.451 267.182 232.405 267.226 232.405 267.28V269.477C232.405 269.532 232.451 269.575 232.508 269.575H233.161C233.218 269.586 233.264 269.532 233.264 269.477Z" fill="#0F214F"/>
<path d="M236.54 274.788L234.891 273.28C234.834 273.225 234.742 273.225 234.685 273.28L234.284 273.652C234.226 273.706 234.226 273.783 234.284 273.837L235.933 275.346C235.99 275.4 236.082 275.4 236.139 275.346L236.54 274.974C236.598 274.919 236.598 274.832 236.54 274.788Z" fill="#0F214F"/>
<path d="M243.023 276.438H240.607C240.549 276.438 240.503 276.482 240.503 276.537V277.116C240.503 277.171 240.549 277.214 240.607 277.214H243.023C243.08 277.214 243.126 277.171 243.126 277.116V276.537C243.126 276.493 243.08 276.438 243.023 276.438Z" fill="#0F214F"/>
<path d="M248.831 273.455L247.181 274.963C247.124 275.018 247.124 275.094 247.181 275.149L247.582 275.52C247.639 275.575 247.731 275.575 247.788 275.52L249.438 274.012C249.495 273.958 249.495 273.881 249.438 273.826L249.037 273.455C248.979 273.4 248.876 273.4 248.831 273.455Z" fill="#0F214F"/>
<path d="M250.64 267.532V269.728C250.64 269.783 250.686 269.827 250.743 269.827H251.396C251.453 269.827 251.499 269.783 251.499 269.728V267.532C251.499 267.477 251.453 267.433 251.396 267.433H250.743C250.686 267.433 250.64 267.477 250.64 267.532Z" fill="#0F214F"/>
<path d="M247.364 262.231L249.014 263.739C249.071 263.794 249.163 263.794 249.22 263.739L249.621 263.368C249.678 263.313 249.678 263.237 249.621 263.182L247.972 261.674C247.914 261.619 247.823 261.619 247.765 261.674L247.364 262.045C247.307 262.1 247.307 262.176 247.364 262.231Z" fill="#0F214F"/>
<path d="M241.958 270.799C243.343 270.799 244.466 269.772 244.466 268.504C244.466 267.237 243.343 266.209 241.958 266.209C240.573 266.209 239.449 267.237 239.449 268.504C239.449 269.772 240.573 270.799 241.958 270.799Z" fill="#E6E7E8"/>
<path d="M241.958 270.613C243.229 270.613 244.26 269.669 244.26 268.504C244.26 267.339 243.229 266.395 241.958 266.395C240.686 266.395 239.656 267.339 239.656 268.504C239.656 269.669 240.686 270.613 241.958 270.613Z" fill="#6D6E71"/>
<path d="M99.1812 266.122H91.4955C90.98 266.122 90.5218 266.406 90.3157 266.832L89.1244 269.4C88.7693 270.154 89.3993 270.996 90.3042 270.974L97.738 270.756C98.8834 270.723 99.7998 269.859 99.7998 268.81V266.69C99.7998 266.384 99.5249 266.122 99.1812 266.122Z" fill="#0F214F"/>
<path d="M277.214 257.346L273.32 262.668L272.77 269.368H273.48C276.344 269.368 278.657 267.247 278.657 264.635V257.75C278.657 257.029 277.649 256.745 277.214 257.346Z" fill="#0F214F"/>
<path d="M89.8574 245.434C89.823 249.346 94.5765 260.505 97.3599 266.69C97.9899 268.1 100.201 268.089 100.796 266.657C100.899 266.406 101.002 266.166 101.105 265.936C103.121 261.379 105.584 258.712 108.264 257.149C109.181 256.614 110.12 256.21 111.071 255.904C113.419 255.139 115.847 254.986 118.207 254.942C126.568 254.822 132.02 259.761 133.887 261.969C135.193 263.521 137.106 267.849 138.137 270.297C138.423 270.985 138.996 271.521 139.706 271.805C140.084 271.958 140.496 272.045 140.92 272.045L221.375 272.111H221.501C222.005 272.111 222.474 271.925 222.806 271.608C223.024 271.411 223.184 271.149 223.265 270.865C227.652 255.554 237.697 253.303 241.362 253.292C244.088 253.281 246.448 253.63 248.51 254.221C254.157 255.86 257.467 259.434 259.426 263.007C262.083 267.87 262.197 272.723 262.197 272.723L272.827 269.204C273.652 268.93 274.247 268.264 274.373 267.477C275.988 257.335 273.468 246.778 272.002 241.86C271.464 240.035 270.364 238.385 268.852 237.095C265.897 234.582 260.754 230.462 258.326 229.893C258.303 229.882 258.28 229.882 258.246 229.882C258.04 229.85 257.833 229.882 257.65 229.97L256.642 230.429C256.642 230.429 249.025 218.112 246.184 212.298C245.829 211.577 245.967 210.768 246.471 210.178C246.597 210.036 246.757 209.894 246.929 209.785L247.101 209.675C247.33 209.49 247.41 209.205 247.353 208.965C247.296 208.746 247.147 208.561 246.895 208.462C243.825 207.216 235.257 203.829 230.194 202.79C221.443 200.998 189.853 195.359 156.498 203.643L154.482 204.124C153.978 204.244 153.852 204.801 154.173 205.096C154.219 205.151 154.287 205.184 154.356 205.227L155.02 205.533L158.434 207.107C158.48 207.129 158.514 207.14 158.548 207.162C159.9 207.883 160.358 209.468 159.579 210.714L148.228 228.899C146.842 231.117 143.738 231.871 141.321 230.582C140.141 229.948 139.042 229.238 138.469 228.527C138.354 228.385 138.183 228.298 137.999 228.276C137.862 228.254 137.725 228.276 137.599 228.331C136.442 228.822 133.796 230.068 132.123 231.751C132.123 231.751 111.529 232.09 95.7448 237.838C94.336 238.352 91.8733 239.226 90.6248 241.817C90.1666 242.756 89.8688 243.948 89.8574 245.434ZM205.087 211.785C205.075 210.342 206.393 209.184 207.973 209.249L220.653 209.763C226.93 210.014 232.577 213.293 235.498 218.375L240.034 226.276C242.107 229.729 240.137 232.964 237.021 232.964H208.431C206.633 232.964 205.178 231.642 205.167 229.992L205.087 211.785ZM151.71 231.096L164.768 211.697C165.169 211.096 165.879 210.735 166.646 210.725L199.119 210.528C200.093 210.517 200.883 211.238 200.883 212.134V228.943C200.883 231.5 198.615 233.401 195.809 233.401L154.264 233.554H154.253H153.211C151.836 233.565 150.988 232.177 151.71 231.096Z" fill="#D1D3D4"/>
<path d="M196.313 240.68C196.313 241.117 196.084 241.532 195.683 241.871C194.984 242.483 193.759 242.877 192.373 242.877C190.196 242.877 188.432 241.893 188.432 240.669C188.432 239.456 190.196 238.461 192.373 238.461C193.736 238.461 194.927 238.844 195.637 239.434C196.072 239.795 196.313 240.221 196.313 240.68Z" fill="#0F214F"/>
<path opacity="0.2" d="M199.669 240.68C199.669 241.041 199.509 241.368 199.245 241.609C198.982 241.849 198.627 241.991 198.237 241.991L195.694 241.871C196.095 241.532 196.324 241.117 196.324 240.68C196.324 240.221 196.072 239.806 195.649 239.445L198.237 239.368C199.016 239.368 199.669 239.959 199.669 240.68Z" fill="#58595B"/>
<path d="M190.128 241.314L198.1 241.587C198.65 241.587 199.096 241.172 199.096 240.669C199.096 240.166 198.65 239.751 198.1 239.751L190.128 240.024C189.578 240.024 189.131 240.166 189.131 240.669C189.131 241.183 189.578 241.314 190.128 241.314Z" fill="#F1F2F2"/>
<path opacity="0.55" d="M246.15 212.298C249.002 218.123 256.608 230.429 256.608 230.429L256.986 230.254L257.627 229.97C257.627 229.97 257.604 229.904 257.57 229.795C257.032 228.287 252.977 217.282 246.666 210.408C246.608 210.342 246.563 210.287 246.505 210.233C246.494 210.211 246.471 210.189 246.448 210.167H246.437C245.921 210.768 245.795 211.588 246.15 212.298Z" fill="#FDFFFB"/>
<path opacity="0.55" d="M138.458 228.527C138.778 228.921 139.248 229.314 139.809 229.686C140.267 230.003 140.783 230.298 141.31 230.582C141.711 230.8 142.146 230.953 142.57 231.063C144.712 231.576 147.06 230.746 148.217 228.899L159.568 210.713C159.98 210.058 160.037 209.304 159.808 208.637C159.602 208.036 159.167 207.5 158.526 207.162C158.491 207.14 158.445 207.118 158.411 207.107L154.998 205.533C154.998 205.533 154.986 205.544 154.975 205.566C154.952 205.588 154.929 205.632 154.895 205.675C153.646 207.282 142.123 222.21 138.572 228.374C138.526 228.418 138.492 228.473 138.458 228.527Z" fill="#FDFFFB"/>
<path d="M205.11 211.457L217.778 211.97C224.055 212.222 229.702 215.5 232.623 220.582L237.159 228.484C238.144 230.123 238.213 231.707 237.697 232.921C240.412 232.494 241.947 229.489 240.034 226.287L235.498 218.385C232.577 213.304 226.93 210.025 220.653 209.774L207.973 209.26C206.519 209.194 205.282 210.178 205.11 211.457Z" fill="#58595B"/>
<path d="M204.984 230.003L204.904 211.785C204.904 211.653 204.915 211.533 204.926 211.424L204.949 211.271L217.79 211.796C224.101 212.047 229.851 215.391 232.795 220.495L237.33 228.396C238.281 229.97 238.464 231.598 237.88 232.975L237.846 233.063L237.743 233.085C237.514 233.128 237.285 233.139 237.033 233.139H208.443C206.541 233.15 204.984 231.74 204.984 230.003ZM236.998 228.56L232.462 220.659C229.587 215.653 223.952 212.386 217.778 212.134L205.281 211.632C205.281 211.686 205.281 211.73 205.281 211.785L205.362 230.003C205.373 231.544 206.748 232.8 208.443 232.8H237.033C237.227 232.8 237.399 232.789 237.571 232.768C238.075 231.5 237.869 230.014 236.998 228.56Z" fill="#0F214F"/>
<path d="M204.984 230.003L204.904 211.785C204.904 211.653 204.915 211.533 204.926 211.424L204.949 211.271L217.79 211.796C224.101 212.047 229.851 215.391 232.795 220.495L237.33 228.396C238.281 229.97 238.464 231.598 237.88 232.975L237.846 233.063L237.743 233.085C237.514 233.128 237.285 233.139 237.033 233.139H208.443C206.541 233.15 204.984 231.74 204.984 230.003ZM236.998 228.56L232.462 220.659C229.587 215.653 223.952 212.386 217.778 212.134L205.281 211.632C205.281 211.686 205.281 211.73 205.281 211.785L205.362 230.003C205.373 231.544 206.748 232.8 208.443 232.8H237.033C237.227 232.8 237.399 232.789 237.571 232.768C238.075 231.5 237.869 230.014 236.998 228.56Z" fill="#0F214F"/>
<path d="M152.26 233.303C152.237 233.008 152.317 232.702 152.512 232.407L165.089 213.719C165.478 213.14 166.165 212.79 166.899 212.79L198.18 212.604C199.119 212.593 199.887 213.293 199.887 214.145V230.33C199.887 230.942 199.749 231.522 199.509 232.046C200.368 231.259 200.906 230.177 200.906 228.942V212.134C200.906 211.238 200.104 210.517 199.142 210.528L166.669 210.724C165.902 210.735 165.192 211.096 164.791 211.697L151.733 231.095C151.172 231.893 151.493 232.855 152.26 233.303Z" fill="#58595B"/>
<path d="M152.157 233.445L152.077 233.401V233.314C152.054 232.964 152.146 232.626 152.352 232.32L164.928 213.632C165.352 212.998 166.085 212.626 166.899 212.615L198.18 212.429C198.695 212.429 199.165 212.604 199.52 212.932C199.875 213.26 200.07 213.686 200.07 214.145V230.331C200.07 230.953 199.932 231.555 199.669 232.112L199.635 232.167C198.638 233.074 197.287 233.565 195.832 233.565L153.234 233.729C152.833 233.729 152.466 233.631 152.157 233.445ZM199.692 230.331V214.145C199.692 213.774 199.532 213.435 199.245 213.173C198.959 212.91 198.569 212.779 198.169 212.768L166.887 212.954C166.211 212.954 165.593 213.271 165.226 213.806L152.65 232.494C152.501 232.713 152.432 232.953 152.42 233.194C152.65 233.314 152.924 233.38 153.199 233.38L195.797 233.216C197.149 233.216 198.398 232.757 199.314 231.937C199.566 231.445 199.692 230.899 199.692 230.331Z" fill="#0F214F"/>
<path d="M152.157 233.445L152.077 233.401V233.314C152.054 232.964 152.146 232.625 152.352 232.33L164.928 213.642C165.352 213.009 166.085 212.637 166.899 212.637L198.18 212.451C198.684 212.429 199.154 212.626 199.509 212.943C199.864 213.271 200.059 213.697 200.059 214.156V230.33C200.059 230.953 199.921 231.554 199.658 232.112L199.623 232.166C198.638 233.073 197.287 233.565 195.821 233.565L153.222 233.729C152.844 233.729 152.466 233.631 152.157 233.445ZM199.692 230.33V214.145C199.692 213.774 199.532 213.424 199.245 213.162C198.959 212.899 198.581 212.757 198.169 212.757L166.887 212.943C166.2 212.943 165.581 213.271 165.226 213.795L152.65 232.483C152.501 232.702 152.42 232.942 152.42 233.194C152.661 233.314 152.924 233.379 153.211 233.379L195.809 233.216C197.161 233.216 198.409 232.757 199.337 231.926C199.578 231.445 199.692 230.899 199.692 230.33Z" fill="#0F214F"/>
<path opacity="0.55" d="M205.087 211.785L205.167 230.003C205.179 231.642 206.633 232.975 208.432 232.975H237.021C240.137 232.975 242.107 229.74 240.034 226.287L235.486 218.385C232.566 213.304 226.919 210.025 220.642 209.774L207.962 209.26C206.393 209.194 205.075 210.342 205.087 211.785Z" fill="#FDFFFB"/>
<path opacity="0.55" d="M199.119 210.539L166.646 210.735C165.879 210.735 165.169 211.107 164.768 211.708L151.71 231.106C150.989 232.188 151.836 233.576 153.222 233.565L195.82 233.412C198.615 233.412 200.883 231.511 200.883 228.954V212.145C200.883 211.249 200.093 210.528 199.119 210.539Z" fill="#FDFFFB"/>
<path d="M266.756 245.609L268.612 250.1L271.831 257.903L274.545 256.494C275.107 256.199 275.381 255.608 275.21 255.04C275.049 254.483 274.809 253.718 274.511 252.854C274.121 251.718 273.606 250.417 273.01 249.193C272.323 247.784 271.51 246.461 270.594 245.587C270.33 245.346 269.975 245.204 269.597 245.182C269.07 245.161 268.268 245.182 267.432 245.401C267.203 245.445 266.974 245.521 266.756 245.609Z" fill="#AD0303"/>
<path d="M266.756 245.609L268.612 250.1L273.01 249.193C272.323 247.784 271.51 246.461 270.594 245.587C270.33 245.346 269.975 245.204 269.597 245.182C269.07 245.161 268.268 245.182 267.432 245.401C267.203 245.445 266.974 245.521 266.756 245.609Z" fill="#FCA713"/>
<path opacity="0.47" d="M267.421 245.39L271.498 253.98L274.499 252.843C273.652 250.406 272.289 247.193 270.582 245.576C270.319 245.335 269.964 245.193 269.586 245.172C269.07 245.161 268.257 245.183 267.421 245.39Z" fill="#E6E7E8"/>
<path d="M266.756 245.609L265.176 246.068L270.353 258.657L271.831 257.892L266.756 245.609Z" fill="#58595B"/>
<path d="M92.7439 241.816L92.5148 253.106C92.5148 253.106 90.8424 252.723 90.4415 252.275L90.6363 242.581C90.6248 242.581 91.4152 241.784 92.7439 241.816Z" fill="#58595B"/>
<path d="M90.4301 252.1C90.4301 252.1 88.838 247.86 90.6134 242.986L90.4301 252.1Z" fill="#D1D3D4"/>
<path d="M274.648 263.226L265.439 266.679C264.901 266.887 264.557 267.379 264.592 267.914L264.74 270.165C264.786 270.766 265.771 271.499 266.413 271.324L274.74 268.592C275.37 268.417 275.782 267.859 275.725 267.247L275.336 263.586C275.29 263.302 274.946 263.116 274.648 263.226Z" fill="#0F214F"/>
<path d="M277.81 258.177L273.915 263.499L273.366 270.198H274.076C276.939 270.198 279.253 268.078 279.253 265.466V258.581C279.264 257.86 278.245 257.586 277.81 258.177Z" fill="#0F214F"/>
<path d="M93.076 266.777L90.0292 260.056C89.7085 259.335 88.5745 259.379 88.3225 260.122C87.6124 262.166 86.6617 265.411 86.4097 268.581C86.1921 271.28 88.5058 273.597 91.4725 273.597C91.7015 273.597 91.8734 273.433 91.8848 273.225L91.9077 270.876L93.076 266.777Z" fill="#0F214F"/>
<path d="M99.7081 266.777H92.0222C91.5068 266.777 91.0486 267.062 90.8425 267.488L89.6512 270.056C89.2961 270.81 89.9261 271.652 90.831 271.63L98.2648 271.411C99.4102 271.378 100.327 270.515 100.327 269.466V267.346C100.327 267.029 100.052 266.777 99.7081 266.777Z" fill="#0F214F"/>
<path d="M93.4884 257.619L91.5526 263.411L93.076 266.777H97.3943L93.4884 257.619Z" fill="#0F214F"/>
<path d="M240.893 208.178C240.893 208.178 198.753 196.714 159.934 205.621C159.934 205.621 198.134 200.462 240.893 208.178Z" fill="#E6E7E8"/>
<path d="M257.559 229.806C257.02 228.298 252.965 217.293 246.654 210.419C249.037 213.304 256.974 230.265 256.974 230.265L257.616 229.981C257.616 229.981 257.593 229.915 257.559 229.806Z" fill="#BCBEC0"/>
<path d="M246.437 210.178C246.459 210.2 246.482 210.222 246.505 210.244C246.482 210.233 246.459 210.2 246.437 210.178Z" fill="#BCBEC0"/>
<path d="M138.458 228.527C138.778 228.921 139.248 229.314 139.809 229.686C141.333 225.216 154.322 206.473 154.963 205.555C154.94 205.577 154.917 205.621 154.883 205.665C153.635 207.271 142.112 222.2 138.561 228.363C138.526 228.418 138.492 228.473 138.458 228.527Z" fill="#D1D3D4"/>
<path d="M142.57 231.052C144.712 231.565 147.06 230.735 148.217 228.888L159.568 210.703C159.98 210.047 160.037 209.293 159.808 208.626C158.525 210.211 148.102 223.085 142.57 231.052Z" fill="#D1D3D4"/>
<path d="M227.663 235.369C230.229 235.358 255.291 236.527 255.291 236.527L135.514 236.844C135.514 236.844 141.527 236.09 143.566 236.013C174.894 234.844 198.489 235.467 227.663 235.369Z" fill="#E6E7E8"/>
<path d="M138.354 228.68C138.893 229.314 139.855 229.992 141.218 230.724C142.031 231.161 142.925 231.38 143.841 231.38C144.299 231.38 144.757 231.325 145.204 231.216C146.556 230.877 147.69 230.09 148.377 228.975L159.728 210.79C160.553 209.479 160.06 207.774 158.628 207.009C158.583 206.987 158.548 206.965 158.502 206.943L155.101 205.38L155.009 205.522C155.009 205.522 154.975 205.566 154.894 205.664L154.952 205.686L158.354 207.249C158.399 207.271 158.422 207.282 158.457 207.293C159.717 207.97 160.152 209.457 159.43 210.615L148.079 228.8C147.426 229.839 146.384 230.571 145.124 230.877C143.864 231.183 142.558 231.019 141.424 230.429C140.061 229.697 139.122 229.03 138.629 228.418L138.572 228.363C138.538 228.418 138.503 228.473 138.48 228.527L138.354 228.68Z" fill="#422603"/>
<path d="M245.978 212.375C247.387 215.26 249.987 219.762 252.244 223.566C254.5 227.369 256.413 230.462 256.448 230.527L256.539 230.669L257.708 230.134L257.627 229.981C257.627 229.981 257.604 229.915 257.57 229.806L256.7 230.21C255.852 228.822 248.979 217.642 246.334 212.233C246.208 211.981 246.15 211.719 246.15 211.457C246.15 211.052 246.288 210.648 246.574 210.32C246.54 210.276 246.494 210.233 246.46 210.189L246.311 210.08C245.726 210.724 245.6 211.61 245.978 212.375Z" fill="#422603"/>
<g opacity="0.32">
<path opacity="0.32" d="M214.044 232.975L230.893 213.293C232.76 214.659 234.341 216.375 235.498 218.375L236.506 220.123L225.51 232.964H214.044V232.975Z" fill="#D1D3D4"/>
<path opacity="0.32" d="M205.087 212.418L207.79 209.26C207.847 209.26 207.905 209.26 207.973 209.26L218.878 209.697L205.144 225.74L205.087 212.418Z" fill="#D1D3D4"/>
<path opacity="0.32" d="M208.431 232.975C206.633 232.975 205.178 231.653 205.167 230.003V228.866L221.466 209.817C223.654 210.003 225.75 210.55 227.663 211.413L209.21 232.964H208.431V232.975Z" fill="#D1D3D4"/>
<path opacity="0.32" d="M227.949 232.975L237.479 221.839L240.034 226.287C240.217 226.582 240.354 226.877 240.48 227.172L235.509 232.975H227.949Z" fill="#D1D3D4"/>
</g>
<g opacity="0.32">
<path opacity="0.32" d="M174.893 233.478L194.515 210.561L199.119 210.528C200.093 210.517 200.883 211.238 200.883 212.134V216.506L186.394 233.434L174.893 233.478Z" fill="#D1D3D4"/>
<path opacity="0.32" d="M153.222 233.554C151.836 233.554 150.989 232.177 151.71 231.095L156.635 223.773L167.815 210.713L179.338 210.648L159.751 233.532L153.222 233.554Z" fill="#D1D3D4"/>
<path opacity="0.32" d="M162.454 233.522L182.041 210.637L189.646 210.594L170.037 233.5L162.454 233.522Z" fill="#D1D3D4"/>
<path opacity="0.32" d="M195.82 233.401L188.833 233.423L200.883 219.347V228.188L196.45 233.369C196.244 233.39 196.027 233.401 195.82 233.401Z" fill="#D1D3D4"/>
</g>
<path d="M204.984 230.003L204.904 211.785C204.904 211.653 204.915 211.533 204.926 211.435C205.11 210.058 206.461 209.031 207.985 209.085L220.664 209.599C226.987 209.85 232.726 213.183 235.669 218.298L240.205 226.199C241.213 227.872 241.362 229.653 240.618 231.063C240.045 232.145 238.991 232.888 237.743 233.085C237.514 233.128 237.285 233.139 237.033 233.139H208.443C206.541 233.15 204.984 231.74 204.984 230.003ZM205.293 211.479C205.281 211.566 205.27 211.675 205.27 211.785L205.35 230.003C205.362 231.544 206.736 232.8 208.431 232.8H237.021C237.25 232.8 237.456 232.779 237.663 232.746C238.796 232.571 239.747 231.893 240.263 230.91C240.95 229.598 240.812 227.937 239.862 226.352L235.326 218.451C232.451 213.446 226.827 210.178 220.642 209.927L207.962 209.413C207.927 209.413 207.882 209.413 207.847 209.413C206.564 209.424 205.453 210.309 205.293 211.479Z" fill="#0F214F"/>
<path d="M152.157 233.445C151.252 232.91 150.989 231.839 151.55 231.008L164.608 211.61C165.043 210.954 165.81 210.572 166.646 210.561L199.119 210.364C199.635 210.353 200.127 210.539 200.505 210.877C200.872 211.216 201.078 211.664 201.078 212.134V228.943C201.078 230.167 200.562 231.314 199.635 232.166C198.638 233.074 197.286 233.565 195.832 233.565L153.234 233.729C152.833 233.729 152.466 233.631 152.157 233.445ZM199.119 210.703L166.646 210.899C165.936 210.91 165.295 211.238 164.917 211.785L151.859 231.183C151.355 231.937 151.71 232.778 152.352 233.161C152.604 233.314 152.901 233.39 153.211 233.39L195.809 233.227C197.172 233.227 198.432 232.768 199.348 231.926C200.207 231.139 200.688 230.079 200.688 228.943V212.134C200.688 211.752 200.528 211.391 200.219 211.118C199.921 210.845 199.532 210.703 199.119 210.703Z" fill="#0F214F"/>
<path d="M228.694 256.417C228.694 256.417 225.899 259.444 223.459 262.821C223.013 263.433 222.303 264.941 221.684 266.351C221.432 267.138 221.191 267.925 220.997 268.592C220.699 269.608 219.702 270.318 218.557 270.34C215.247 270.395 208.809 270.307 204.457 270.351C204.457 270.351 217.56 269.848 218.775 268.384C219.977 266.941 220.561 264.395 222.795 262.002C225.601 258.985 228.511 256.45 228.694 256.417Z" fill="#E6E7E8"/>
<path d="M133.784 259.029C133.784 259.029 135.972 261.39 137.874 264.034C138.217 264.515 138.778 265.685 139.259 266.788C139.454 267.4 139.649 268.023 139.798 268.537C140.027 269.335 140.806 269.881 141.711 269.903C144.299 269.947 144.918 269.827 148.32 269.87C148.32 269.87 142.49 269.521 141.539 268.373C140.6 267.247 140.141 265.258 138.4 263.39C136.201 261.04 133.933 259.051 133.784 259.029Z" fill="#E6E7E8"/>
<path d="M262.163 258.122C262.163 258.122 256.928 251.39 248.521 250.089C240.114 248.789 233.161 251.915 231.844 253.204C231.844 253.204 230.137 253.073 234.536 250.363C242.118 245.696 255.302 247.051 260.319 253.98C261.545 255.652 263.217 258.22 262.163 258.122Z" fill="#E6E7E8"/>
<path d="M130.726 256.024C130.726 256.024 125.606 252.166 118.527 252.33C111.449 252.494 106.088 255.434 105.16 256.461C105.16 256.461 103.442 255.587 106.89 253.434C112.503 249.947 121.173 249.095 127.771 252.931C130.428 254.461 131.608 255.969 130.726 256.024Z" fill="#E6E7E8"/>
<path d="M173.702 232.385C173.519 232.396 173.324 232.407 173.118 232.418L173.702 232.385Z" fill="#E6E7E8"/>
<path d="M173.118 232.429L172.442 232.473C172.683 232.451 172.912 232.44 173.118 232.429Z" fill="#E6E7E8"/>
<path d="M90.6248 241.805C90.7852 241.729 102.297 235.751 139.477 233.522L132.123 231.751C132.123 231.751 111.529 232.09 95.7448 237.838C94.336 238.341 91.8619 239.215 90.6248 241.805Z" fill="#E6E7E8"/>
<path d="M145.261 263.226C144.505 254.111 145.044 241.499 145.216 239.489C145.491 236.232 148.514 232.604 149.064 232.079C149.522 231.631 150.301 230.494 150.611 230.024C153.738 225.369 162.981 211.238 163.073 211.096C163.92 209.817 165.455 209.02 167.082 209.02L199.898 208.976C199.898 208.976 199.898 208.976 199.91 208.976C200.849 208.976 201.593 209.227 202.12 209.719C202.681 210.244 202.968 211.019 202.945 211.981C202.899 213.752 202.979 216.407 203.094 220.079C203.151 222.046 203.22 224.276 203.277 226.768C203.563 238.571 203.85 240.232 204.606 244.691C205.167 247.958 204.663 258.264 204.64 258.69C204.64 265.652 198.913 271.105 191.605 271.105H154.528C149.786 271.105 145.628 267.564 145.261 263.226ZM199.921 209.315L167.105 209.358C165.604 209.358 164.184 210.091 163.405 211.271C163.313 211.413 154.058 225.544 150.931 230.199C150.53 230.789 149.797 231.849 149.339 232.308C148.812 232.822 145.869 236.352 145.594 239.51C145.422 241.521 144.883 254.1 145.639 263.193C145.983 267.368 149.981 270.766 154.539 270.766H191.617C198.718 270.766 204.274 265.466 204.285 258.679C204.285 258.57 204.812 247.969 204.251 244.734C203.483 240.265 203.197 238.592 202.911 226.768C202.853 224.276 202.785 222.046 202.727 220.079C202.613 216.407 202.533 213.741 202.578 211.97C202.601 211.107 202.349 210.407 201.868 209.948C201.41 209.522 200.757 209.315 199.921 209.315Z" fill="#422603"/>
<path d="M150.817 228.057C150.817 228.057 150.588 229.423 150.817 230.56C151.012 231.533 152.1 233.259 152.1 233.259C152.18 233.423 152.443 233.369 152.443 233.194C152.443 232.123 152.26 230.035 151.16 227.981C151.08 227.839 150.817 227.893 150.817 228.057Z" fill="#808285"/>
<path d="M150.84 234.527C150.76 234.374 150.542 234.352 150.427 234.462L150.416 230.899L150.817 230.921L150.84 234.527Z" fill="#808285"/>
<path d="M151.206 235.401C150.53 235.707 150.084 235.401 150.084 235.401L150.381 234.549C150.393 234.516 150.416 234.483 150.439 234.462C150.553 234.352 150.771 234.363 150.851 234.527L150.863 234.538L151.206 235.401Z" fill="#6D6E71"/>
<path d="M150.885 230.188L150.175 230.549C150.004 230.636 150.061 230.888 150.267 230.899L151.057 230.942C151.057 230.942 151.24 230.647 150.885 230.188Z" fill="#6D6E71"/>
<path d="M244.741 217.161L251.11 227.762C251.522 228.451 250.984 229.281 250.125 229.281H245.394C244.455 229.281 243.584 228.8 243.161 228.035L236.082 215.446C235.807 214.965 236.197 214.386 236.792 214.386H239.644C241.752 214.397 243.71 215.457 244.741 217.161Z" fill="#939598"/>
<path d="M245.944 210.069C246.207 209.883 245.875 208.725 244.753 209.249C243.63 209.774 243.688 211.916 243.962 212.364C244.455 213.205 253.767 229.281 254.237 230.09C255.337 231.992 260.64 236.112 262.163 240.144C262.163 240.144 267.215 243.051 267.421 245.39L270.582 245.576C270.582 245.576 270.113 241.707 269.872 240.428C269.712 239.565 268.818 237.969 266.745 236.833C264.683 235.696 261.442 232.855 256.516 230.658C255.52 230.21 247.742 216.385 245.749 212.801C245.371 212.112 245.28 211.315 245.577 210.593C245.681 210.375 245.795 210.178 245.944 210.069Z" fill="#E6E7E8"/>
<path d="M241.019 179.283L237.559 202.375C237.296 204.134 235.521 205.369 233.585 205.129L193.426 200.113C191.502 199.872 190.15 198.244 190.414 196.484L193.873 173.392C194.136 171.633 195.912 170.398 197.848 170.638L238.006 175.654C239.931 175.895 241.282 177.523 241.019 179.283Z" fill="#314123"/>
<path d="M198.249 170.693L197.71 174.256L193.804 173.764L193.862 173.392C194.125 171.633 195.901 170.398 197.836 170.638L198.249 170.693Z" fill="#E0FA78"/>
<path d="M241.019 179.283L240.961 179.654L237.056 179.163L237.594 175.6L238.006 175.654C239.931 175.895 241.282 177.523 241.019 179.283Z" fill="#E0FA78"/>
<path d="M194.377 196.594L193.839 200.156L193.426 200.102C191.502 199.861 190.15 198.233 190.414 196.473L190.471 196.102L194.377 196.594Z" fill="#E0FA78"/>
<path d="M237.617 202.003L237.559 202.375C237.296 204.134 235.521 205.369 233.585 205.129L233.173 205.074L233.711 201.512L237.617 202.003Z" fill="#E0FA78"/>
<path d="M201.868 201.173L200.413 200.987L204.823 171.513L206.289 171.687L201.868 201.173Z" fill="#0F214F"/>
<path d="M226.609 204.255L225.155 204.08L229.564 174.605L231.031 174.78L226.609 204.255Z" fill="#0F214F"/>
<path d="M221.799 186.649L214.136 185.687L214.697 181.96L222.36 182.911L221.799 186.649Z" fill="#ED545C"/>
<path d="M208.752 192.572L207.16 192.375L207.24 191.829L208.832 192.025L208.752 192.572Z" fill="#FFD0A1"/>
<path d="M221.718 197.446L218.007 196.987L218.397 194.364L222.119 194.823L221.718 197.446Z" fill="#ED7D89"/>
<path d="M220.562 190.736L217.343 190.332L217.709 187.884L220.928 188.288L220.562 190.736Z" fill="#FFD0A1"/>
<path d="M235.383 193.02L234.272 192.878L234.684 190.168L235.784 190.31L235.383 193.02Z" fill="#FF9933"/>
<path d="M199.978 184.66L197.275 184.321L197.687 181.578L200.391 181.906L199.978 184.66Z" fill="#ED545C"/>
<path d="M216.553 178.54L209.783 177.687L210.195 174.933L216.965 175.775L216.553 178.54Z" fill="#FF9933"/>
<path d="M209.187 186.332C210.187 186.332 210.997 185.593 210.997 184.681C210.997 183.77 210.187 183.031 209.187 183.031C208.188 183.031 207.378 183.77 207.378 184.681C207.378 185.593 208.188 186.332 209.187 186.332Z" fill="#ED545C"/>
<path d="M213.723 192.463C213.689 192.692 213.322 192.834 212.899 192.78C212.475 192.725 212.166 192.495 212.2 192.266C212.234 192.036 212.601 191.894 213.025 191.949C213.448 192.015 213.758 192.233 213.723 192.463Z" fill="#FFD0A1"/>
<path d="M232.863 186.518C232.817 186.813 232.462 187.02 232.073 186.966C231.684 186.911 231.397 186.638 231.443 186.332C231.489 186.037 231.844 185.829 232.233 185.884C232.623 185.938 232.909 186.222 232.863 186.518Z" fill="#FFD0A1"/>
<path d="M198.501 191.272C198.409 191.905 197.825 192.353 197.218 192.277C196.599 192.2 196.175 191.621 196.278 190.998C196.37 190.364 196.954 189.916 197.561 189.993C198.18 190.058 198.592 190.638 198.501 191.272Z" fill="#ED545C"/>
<path d="M211.215 198.911C211.066 199.938 210.024 200.659 208.901 200.517C207.779 200.375 206.988 199.424 207.137 198.397C207.286 197.37 208.328 196.648 209.451 196.79C210.585 196.932 211.364 197.883 211.215 198.911Z" fill="#ED7D89"/>
<path d="M232.142 196.79C232.084 197.173 231.695 197.446 231.271 197.391C230.847 197.337 230.561 196.987 230.618 196.605C230.676 196.222 231.065 195.949 231.489 196.003C231.913 196.047 232.199 196.397 232.142 196.79Z" fill="#ED7D89"/>
<path d="M223.608 173.862L213.174 172.562C213.116 172.551 213.082 172.507 213.093 172.463L213.254 171.381C213.265 171.338 213.311 171.305 213.357 171.305L223.792 172.605C223.849 172.616 223.883 172.66 223.872 172.704L223.712 173.786C223.712 173.829 223.666 173.862 223.608 173.862Z" fill="#E5FF7A"/>
<path d="M222.234 180.561L220.63 201.173C220.55 202.244 219.531 203.042 218.351 202.965L211.169 202.495C210.001 202.419 209.119 201.501 209.199 200.43L210.802 179.818C210.883 178.758 211.891 177.949 213.07 178.026L220.252 178.496C221.421 178.572 222.314 179.501 222.234 180.561Z" fill="#FFD0A1"/>
<path d="M212.166 202.572L211.879 202.55L213.895 178.081L214.182 178.102L212.166 202.572Z" fill="#0F214F"/>
<path d="M222.234 180.561L220.103 180.419L220.252 178.485C221.421 178.572 222.314 179.501 222.234 180.561Z" fill="#868586"/>
<path d="M213.07 178.026L212.921 179.96L210.802 179.818C210.883 178.758 211.891 177.949 213.07 178.026Z" fill="#868586"/>
<path d="M220.619 201.173C220.539 202.244 219.519 203.042 218.339 202.965L218.488 201.031L220.619 201.173Z" fill="#868586"/>
<path d="M211.318 200.572L211.169 202.506C210.001 202.429 209.119 201.511 209.199 200.44L211.318 200.572Z" fill="#868586"/>
<path d="M218.523 177.786L215.178 177.567C215.167 177.567 215.144 177.578 215.144 177.589L215.098 178.124C215.098 178.135 215.109 178.146 215.121 178.157L218.465 178.376C218.477 178.376 218.5 178.365 218.5 178.354L218.546 177.818C218.546 177.807 218.534 177.786 218.523 177.786Z" fill="#0F214F"/>
<path d="M238.316 188.452L234.604 204.069C234.318 205.14 233.138 205.806 231.958 205.566L222.383 203.664C221.203 203.435 220.435 202.386 220.653 201.293L224.364 185.676C224.628 184.572 225.819 183.873 227.022 184.113L236.597 186.015C237.812 186.266 238.579 187.359 238.316 188.452Z" fill="#742421"/>
<path d="M227.033 184.124L226.563 186.124L224.376 185.687C224.639 184.583 225.83 183.884 227.033 184.124Z" fill="#FAFF69"/>
<path d="M238.316 188.452L236.128 188.015L236.597 186.015C237.812 186.266 238.579 187.359 238.316 188.452Z" fill="#FAFF69"/>
<path d="M222.852 201.741L222.394 203.675C221.214 203.446 220.447 202.397 220.665 201.304L222.852 201.741Z" fill="#FAFF69"/>
<path d="M234.604 204.069C234.318 205.14 233.138 205.806 231.958 205.566L232.416 203.632L234.604 204.069Z" fill="#FAFF69"/>
<path d="M225.2 204.233L224.925 204.178L229.576 184.627L229.851 184.681L225.2 204.233Z" fill="#0F214F"/>
<path d="M233.676 185.446L230.87 184.889C230.847 184.889 230.836 184.867 230.836 184.845L230.95 184.364C230.95 184.343 230.973 184.332 230.996 184.332L233.802 184.889C233.825 184.889 233.837 184.911 233.837 184.933L233.722 185.414C233.722 185.435 233.699 185.446 233.676 185.446Z" fill="#FAFF69"/>
<path d="M207.493 187.545L208.249 199.577C208.306 200.484 207.55 201.26 206.554 201.315L162.616 203.621C161.791 203.665 161.069 203.184 160.817 202.506C160.76 202.375 160.726 202.222 160.726 202.08L159.97 190.048C159.912 189.14 160.668 188.364 161.665 188.31L205.603 186.004C206.588 185.949 207.436 186.649 207.493 187.545Z" fill="#314123"/>
<g opacity="0.5">
<path opacity="0.5" d="M208.099 197.107L208.156 198.047L160.621 200.539L160.564 199.599L208.099 197.107Z" fill="white"/>
<path opacity="0.5" d="M208.065 196.681L208.088 196.922L160.553 199.413L160.541 199.173L208.065 196.681Z" fill="white"/>
<path opacity="0.5" d="M208.26 199.621C208.26 199.708 208.26 199.785 208.237 199.861L160.759 202.353C160.747 202.266 160.725 202.2 160.725 202.113L208.26 199.621Z" fill="white"/>
<path opacity="0.5" d="M208.179 198.484L208.248 199.435L160.713 201.927L160.656 200.976L208.179 198.484Z" fill="white"/>
</g>
<g opacity="0.5">
<path opacity="0.5" d="M207.652 189.993L207.71 190.933L160.175 193.424L160.117 192.485L207.652 189.993Z" fill="white"/>
<path opacity="0.5" d="M207.618 189.556L207.641 189.807L160.106 192.299L160.095 192.058L207.618 189.556Z" fill="white"/>
</g>
<g opacity="0.5">
<path opacity="0.5" d="M207.492 187.501L159.957 189.993C159.957 189.905 159.957 189.829 159.98 189.752L207.446 187.261C207.469 187.337 207.492 187.414 207.492 187.501Z" fill="white"/>
<path opacity="0.5" d="M207.389 187.074L160.026 189.566C160.094 189.26 160.278 188.987 160.518 188.79C160.61 188.692 160.701 188.626 160.805 188.572L206.473 186.167C206.599 186.211 206.725 186.287 206.828 186.386C206.908 186.43 206.999 186.506 207.045 186.583C207.183 186.703 207.274 186.845 207.332 186.987C207.354 187.009 207.366 187.042 207.389 187.074Z" fill="white"/>
</g>
<g opacity="0.5">
<path opacity="0.5" d="M162.019 188.299L162.981 203.61L162.626 203.632C162.385 203.643 162.156 203.61 161.939 203.544L160.988 188.474C161.194 188.386 161.423 188.332 161.664 188.321L162.019 188.299Z" fill="white"/>
<path opacity="0.5" d="M162.477 188.277L163.439 203.588L163.176 203.599L162.214 188.288L162.477 188.277Z" fill="white"/>
<path opacity="0.5" d="M160.518 188.791L161.435 203.293C161.148 203.096 160.931 202.823 160.816 202.517C160.805 202.462 160.77 202.419 160.759 202.364C160.747 202.277 160.724 202.211 160.724 202.124L159.957 190.004C159.957 189.916 159.957 189.84 159.98 189.763C159.991 189.687 159.991 189.621 160.026 189.567C160.094 189.25 160.278 188.976 160.518 188.791Z" fill="white"/>
</g>
<g opacity="0.5">
<path opacity="0.5" d="M172.179 187.764L173.21 187.709L174.172 203.02L173.141 203.075L172.179 187.764Z" fill="white"/>
<path opacity="0.5" d="M173.416 187.698L173.679 187.687L174.641 202.998L174.378 203.009L173.416 187.698Z" fill="white"/>
<path opacity="0.5" d="M170.197 187.872L170.461 187.85L171.423 203.172L171.159 203.183L170.197 187.872Z" fill="white"/>
<path opacity="0.5" d="M170.667 187.84L171.698 187.785L172.671 203.107L171.629 203.162L170.667 187.84Z" fill="white"/>
</g>
<path opacity="0.5" d="M166.291 188.069H166.371L167.334 203.38L167.253 203.391L166.291 188.069Z" fill="white"/>
<path opacity="0.5" d="M177.493 187.49L177.574 187.479L178.536 202.79L178.456 202.801L177.493 187.49Z" fill="white"/>
<g opacity="0.5">
<path opacity="0.5" d="M183.381 187.174L184.4 187.119L185.362 202.43L184.343 202.485L183.381 187.174Z" fill="white"/>
<path opacity="0.5" d="M184.606 187.108L184.87 187.097L185.843 202.408L185.58 202.419L184.606 187.108Z" fill="white"/>
<path opacity="0.5" d="M181.388 187.282L181.651 187.271L182.613 202.582L182.35 202.593L181.388 187.282Z" fill="white"/>
<path opacity="0.5" d="M181.857 187.261L182.9 187.206L183.862 202.517L182.82 202.572L181.857 187.261Z" fill="white"/>
</g>
<path opacity="0.5" d="M188.696 186.9L188.776 186.889L189.738 202.2L189.658 202.211L188.696 186.9Z" fill="white"/>
<g opacity="0.5">
<path opacity="0.5" d="M194.572 186.583L195.614 186.529L196.576 201.851L195.534 201.905L194.572 186.583Z" fill="white"/>
<path opacity="0.5" d="M195.809 186.518L196.072 186.507L197.034 201.818L196.771 201.839L195.809 186.518Z" fill="white"/>
<path opacity="0.5" d="M192.602 186.692L192.865 186.681L193.827 201.992L193.564 202.003L192.602 186.692Z" fill="white"/>
<path opacity="0.5" d="M193.071 186.67L194.091 186.616L195.053 201.927L194.033 201.981L193.071 186.67Z" fill="white"/>
</g>
<path opacity="0.5" d="M199.886 186.31L199.967 186.299L200.94 201.621H200.86L199.886 186.31Z" fill="white"/>
<g opacity="0.5">
<path opacity="0.5" d="M206.473 186.178C206.599 186.222 206.725 186.299 206.828 186.397L207.733 200.823C207.469 201.074 207.126 201.26 206.725 201.304L205.763 186.015C206.026 186.015 206.255 186.069 206.473 186.178Z" fill="white"/>
<path opacity="0.5" d="M207.057 186.583C207.194 186.703 207.286 186.845 207.343 186.987L208.168 200.156C208.122 200.309 208.053 200.462 207.927 200.594L207.057 186.583Z" fill="white"/>
<path opacity="0.5" d="M203.792 186.101L204.056 186.09L205.018 201.401L204.755 201.412L203.792 186.101Z" fill="white"/>
<path opacity="0.5" d="M204.262 186.081L205.293 186.026L206.266 201.337L205.224 201.391L204.262 186.081Z" fill="white"/>
</g>
<path d="M163.096 188.233L163.279 191.195L160.049 191.37L159.969 190.047C159.911 189.14 160.667 188.364 161.664 188.31L163.096 188.233Z" fill="#BE7F30"/>
<path d="M207.492 187.545L207.572 188.867L204.342 189.042L204.159 186.08L205.602 186.004C206.587 185.949 207.435 186.649 207.492 187.545Z" fill="#BE7F30"/>
<path d="M163.943 200.594L164.126 203.544L162.614 203.621C161.79 203.665 161.068 203.184 160.816 202.506L160.702 200.757L163.943 200.594Z" fill="#BE7F30"/>
<path d="M208.168 198.266L208.248 199.577C208.305 200.484 207.549 201.26 206.553 201.315L205.178 201.391L204.995 198.441L208.168 198.266Z" fill="#BE7F30"/>
<path d="M168.342 196.725L168.204 194.561C168.204 194.517 168.239 194.485 168.273 194.485L171.95 194.288C171.996 194.288 172.03 194.321 172.03 194.353L172.167 196.517C172.167 196.561 172.133 196.594 172.099 196.594L168.422 196.79C168.376 196.79 168.342 196.769 168.342 196.725Z" fill="#D9F0F8"/>
<path d="M168.777 196.047L168.731 195.195L172.076 195.02L172.121 195.872L168.777 196.047Z" fill="#0F214F"/>
<path d="M168.823 195.993L168.777 195.25L172.076 195.075L172.121 195.818L168.823 195.993Z" fill="#CED9DF"/>
<path d="M169.453 195.643V195.523L169.865 195.501L169.877 195.621L169.453 195.643Z" fill="#0F214F"/>
<path d="M200.184 195.053L200.047 192.889C200.047 192.845 200.012 192.823 199.967 192.823L196.29 193.02C196.244 193.02 196.21 193.053 196.221 193.097L196.359 195.26C196.359 195.304 196.393 195.326 196.439 195.326L200.116 195.129C200.161 195.129 200.184 195.097 200.184 195.053Z" fill="#D9F0F8"/>
<path d="M199.658 194.419L199.612 193.577L196.267 193.752L196.313 194.594L199.658 194.419Z" fill="#0F214F"/>
<path d="M199.612 194.375L199.566 193.632L196.267 193.807L196.313 194.539L199.612 194.375Z" fill="#CED9DF"/>
<path d="M198.936 194.102V193.971L198.512 193.993L198.523 194.124L198.936 194.102Z" fill="#0F214F"/>
<path d="M188.833 196.069L179.395 196.561L179.338 195.643L188.776 195.151L188.833 196.069Z" fill="#9D7028"/>
<path d="M191.869 196.178L188.925 196.069L188.868 195.151L191.788 194.769L191.869 196.178Z" fill="#462A0F"/>
<path d="M176.394 196.987L179.303 196.572L179.246 195.654L176.314 195.577L176.394 196.987Z" fill="#462A0F"/>
<path d="M188.925 196.069H188.845L188.776 195.151L188.868 195.14L188.925 196.069Z" fill="#7A571F"/>
<path d="M179.395 196.572H179.303L179.246 195.654L179.338 195.643L179.395 196.572Z" fill="#7A571F"/>
<path d="M207.733 191.424L160.209 193.927L160.186 193.665L207.721 191.162L207.733 191.424Z" fill="#0F214F"/>
<path d="M203.071 176.813L203.575 185.446C203.598 185.774 203.311 186.058 202.956 186.08L168.445 187.752C168.078 187.774 167.78 187.512 167.757 187.184L167.253 178.551C167.231 178.223 167.505 177.939 167.872 177.917L202.384 176.245C202.75 176.223 203.059 176.474 203.071 176.813Z" fill="#462A0F"/>
<path d="M169.338 177.84L169.361 178.234C169.395 178.911 168.674 179.501 167.735 179.545C167.586 179.556 167.448 179.545 167.311 179.523L167.253 178.551C167.231 178.223 167.505 177.939 167.872 177.917L169.338 177.84Z" fill="#704318"/>
<path d="M203.071 176.813L203.128 177.785C203.025 177.807 202.91 177.818 202.796 177.829C201.857 177.873 201.055 177.359 201.02 176.682L200.998 176.31L202.372 176.245C202.75 176.223 203.059 176.474 203.071 176.813Z" fill="#704318"/>
<path d="M203.277 180.201L167.448 181.938L167.425 181.556L203.254 179.829L203.277 180.201Z" fill="#0F214F"/>
<path d="M183.244 181.413L181.216 181.511C180.953 181.522 180.747 181.73 180.758 181.981C180.769 182.222 180.999 182.418 181.273 182.396L183.301 182.298C183.564 182.287 183.77 182.08 183.759 181.828C183.736 181.588 183.507 181.402 183.244 181.413Z" fill="#0F214F"/>
<path d="M189.2 181.13L187.172 181.228C186.909 181.239 186.703 181.447 186.714 181.698C186.726 181.938 186.955 182.135 187.23 182.113L189.257 182.015C189.52 182.004 189.727 181.796 189.715 181.545C189.704 181.305 189.475 181.108 189.2 181.13Z" fill="#0F214F"/>
<path d="M187.127 183.545L183.518 183.72C182.591 183.763 181.938 183.304 181.892 182.561L181.858 181.906L182.694 181.862L182.728 182.518C182.751 182.922 183.209 182.966 183.473 182.955L187.081 182.78C187.344 182.769 187.802 182.682 187.779 182.277L187.745 181.621L188.581 181.578L188.616 182.233C188.65 182.977 188.066 183.501 187.127 183.545Z" fill="#0F214F"/>
<path d="M195.843 179.414L194.572 179.479C194.446 179.49 194.343 179.589 194.354 179.698L194.469 181.676C194.48 181.796 194.583 181.884 194.709 181.873L195.981 181.807C196.107 181.796 196.21 181.698 196.198 181.589L196.084 179.611C196.084 179.49 195.969 179.403 195.843 179.414Z" fill="#D9F0F8"/>
<path d="M195.648 181.523L195.018 181.555L194.892 179.457L195.522 179.424L195.648 181.523Z" fill="#0F214F"/>
<path d="M195.603 181.501L195.053 181.523L194.927 179.457L195.488 179.424L195.603 181.501Z" fill="#CED9DF"/>
<path d="M195.35 181.096L195.259 181.107L195.247 180.845L195.339 180.835L195.35 181.096Z" fill="#0F214F"/>
<path d="M175.294 180.408L174.023 180.474C173.897 180.485 173.794 180.583 173.805 180.693L173.92 182.671C173.931 182.791 174.034 182.878 174.16 182.867L175.432 182.802C175.558 182.791 175.661 182.692 175.649 182.583L175.535 180.605C175.535 180.496 175.42 180.397 175.294 180.408Z" fill="#D9F0F8"/>
<path d="M175.1 182.528L174.47 182.55L174.344 180.452L174.974 180.419L175.1 182.528Z" fill="#0F214F"/>
<path d="M175.054 182.496L174.504 182.518L174.378 180.452L174.939 180.431L175.054 182.496Z" fill="#CED9DF"/>
<path d="M174.801 182.101H174.71L174.699 181.84L174.79 181.829L174.801 182.101Z" fill="#0F214F"/>
<path d="M179.395 187.217L177.871 187.293L177.299 177.458L178.822 177.381L179.395 187.217Z" fill="#0F214F"/>
<path d="M192.945 186.561L191.422 186.627L190.849 176.802L192.372 176.725L192.945 186.561Z" fill="#0F214F"/>
</svg>
